<svg width="196" height="196" viewBox="0 0 196 196" fill="none" xmlns="http://www.w3.org/2000/svg">
<mask id="mask0_1826_6047" style="mask-type:alpha" maskUnits="userSpaceOnUse" x="0" y="0" width="196" height="196">
<mask id="path-1-inside-1_1826_6047" fill="white">
<path d="M195.951 148.276V43.1425C196.709 33.6618 188.179 27.4624 180.407 24.7506C159.763 17.2753 137.271 17.07 115.758 19.8731V0H102.441L0 18.2779V177.767L101.884 196H115.758V171.454C137.204 174.577 159.451 173.733 180.117 166.714C187.979 164.024 196.731 157.871 195.951 148.276V148.276ZM67.5442 134.282L63.2682 117.212L42.7801 116.619L38.7716 132.778L25.7216 131.821L45.4525 59.9164L61.0192 58.754L82.9325 135.49L67.5442 134.282ZM115.758 26.8015C135.645 23.9984 156.356 24.0897 175.686 30.1292C181.008 32.1574 188.135 34.5961 189.337 41.0912C188.446 46.4016 183.035 48.7945 178.759 50.7091C158.561 57.6829 136.714 58.3438 115.758 55.1074V26.8015ZM115.758 98.82C130.924 100.803 146.334 100.757 161.5 98.7064C171.276 97.2247 181.432 95.0598 189.315 88.5643C188.87 98.3416 190.006 108.21 188.691 117.919C184.794 122.796 178.47 124.528 172.791 126.192C154.151 130.727 134.687 130.841 115.758 128.38V98.82ZM188.647 154.43C182.345 161.449 172.346 162.748 163.683 164.549C147.804 167.033 131.57 167.078 115.669 164.731L115.758 135.286C130.902 137.268 146.268 137.223 161.411 135.172C171.21 133.713 181.387 131.525 189.315 125.03C188.848 134.807 190.05 144.721 188.647 154.43ZM188.647 81.5223C184.661 86.3767 178.336 88.1087 172.635 89.7729C154.04 94.2626 134.643 94.3762 115.758 91.8924V62.3555C130.879 64.3155 146.245 64.2928 161.367 62.2642C171.165 60.783 181.387 58.6177 189.315 52.0995C188.825 61.8995 190.072 71.8135 188.647 81.5223ZM45.5639 104.313C45.5639 104.313 51.1537 83.232 52.6459 72.4063C54.6499 83.2089 57.7454 93.738 60.2842 104.404L45.5639 104.313Z"/>
</mask>
<path d="M195.951 148.276V43.1425C196.709 33.6618 188.179 27.4624 180.407 24.7506C159.763 17.2753 137.271 17.07 115.758 19.8731V0H102.441L0 18.2779V177.767L101.884 196H115.758V171.454C137.204 174.577 159.451 173.733 180.117 166.714C187.979 164.024 196.731 157.871 195.951 148.276V148.276ZM67.5442 134.282L63.2682 117.212L42.7801 116.619L38.7716 132.778L25.7216 131.821L45.4525 59.9164L61.0192 58.754L82.9325 135.49L67.5442 134.282ZM115.758 26.8015C135.645 23.9984 156.356 24.0897 175.686 30.1292C181.008 32.1574 188.135 34.5961 189.337 41.0912C188.446 46.4016 183.035 48.7945 178.759 50.7091C158.561 57.6829 136.714 58.3438 115.758 55.1074V26.8015ZM115.758 98.82C130.924 100.803 146.334 100.757 161.5 98.7064C171.276 97.2247 181.432 95.0598 189.315 88.5643C188.87 98.3416 190.006 108.21 188.691 117.919C184.794 122.796 178.47 124.528 172.791 126.192C154.151 130.727 134.687 130.841 115.758 128.38V98.82ZM188.647 154.43C182.345 161.449 172.346 162.748 163.683 164.549C147.804 167.033 131.57 167.078 115.669 164.731L115.758 135.286C130.902 137.268 146.268 137.223 161.411 135.172C171.21 133.713 181.387 131.525 189.315 125.03C188.848 134.807 190.05 144.721 188.647 154.43ZM188.647 81.5223C184.661 86.3767 178.336 88.1087 172.635 89.7729C154.04 94.2626 134.643 94.3762 115.758 91.8924V62.3555C130.879 64.3155 146.245 64.2928 161.367 62.2642C171.165 60.783 181.387 58.6177 189.315 52.0995C188.825 61.8995 190.072 71.8135 188.647 81.5223ZM45.5639 104.313C45.5639 104.313 51.1537 83.232 52.6459 72.4063C54.6499 83.2089 57.7454 93.738 60.2842 104.404L45.5639 104.313Z" stroke="white" stroke-width="2" mask="url(#path-1-inside-1_1826_6047)"/>
</mask>
<g mask="url(#mask0_1826_6047)">
<rect width="196" height="196" fill="white"/>
</g>
</svg>
