<svg width="196" height="196" viewBox="0 0 196 196" fill="none" xmlns="http://www.w3.org/2000/svg">
<g clip-path="url(#clip0_1837_6183)">
<mask id="mask0_1837_6183" style="mask-type:alpha" maskUnits="userSpaceOnUse" x="0" y="0" width="196" height="196">
<mask id="path-1-inside-1_1837_6183" fill="white">
<path d="M76.5277 97.3233C74.022 87.1974 67.9682 64.9807 65.7766 54.2777H65.6362C63.7252 64.9738 58.9209 83.1168 55.2325 97.3233H76.5277Z"/>
<path fill-rule="evenodd" clip-rule="evenodd" d="M0 0H196V196H0V0ZM44.4814 139.545L51.5441 112.21V112.169H80.0825L87.4259 139.682C87.5662 140.293 88.0206 140.541 88.7489 140.541H103.436C104.164 140.541 104.304 140.108 104.164 139.359L75.7994 40.7168C75.6591 39.968 75.3851 39.7894 74.7904 39.7894H56.1012C55.6535 39.7894 55.3729 40.1054 55.3729 40.7168L29.2066 139.222C29.0662 140.259 29.2066 140.582 30.0752 140.582H43.1584C44.027 140.582 44.341 140.293 44.4814 139.545ZM143.694 127.42C130.157 127.42 124.45 119.114 124.277 106.701L147.489 106.742C155.287 106.742 160.573 106.453 162.35 106.13C163.078 105.986 163.359 105.732 163.533 104.983C163.947 103.307 164.261 99.6934 164.261 95.2899C164.261 81.6947 157.512 64.912 138.128 64.912C118.984 64.912 108.126 82.5878 108.126 104.2C108.126 124.163 116.933 141.983 140.46 141.983C147.803 141.983 153.65 140.912 158.348 138.514C158.969 138.047 159.25 137.58 159.25 136.687V125.201C159.25 124.445 158.802 124.266 158.207 124.555C153.51 126.705 148.986 127.42 143.694 127.42Z"/>
<path d="M142.378 94.1014C146.935 94.1014 148.539 94.1014 148.993 93.9572C148.993 93.3458 149.133 92.8099 149.133 92.384C149.133 87.376 146.768 78.2118 137.507 78.2118C128.981 78.2118 125.292 85.9402 124.424 94.1014H142.378Z"/>
</mask>
<path d="M76.5277 97.3233C74.022 87.1974 67.9682 64.9807 65.7766 54.2777H65.6362C63.7252 64.9738 58.9209 83.1168 55.2325 97.3233H76.5277Z" stroke="white" stroke-width="2" mask="url(#path-1-inside-1_1837_6183)"/>
<path fill-rule="evenodd" clip-rule="evenodd" d="M0 0H196V196H0V0ZM44.4814 139.545L51.5441 112.21V112.169H80.0825L87.4259 139.682C87.5662 140.293 88.0206 140.541 88.7489 140.541H103.436C104.164 140.541 104.304 140.108 104.164 139.359L75.7994 40.7168C75.6591 39.968 75.3851 39.7894 74.7904 39.7894H56.1012C55.6535 39.7894 55.3729 40.1054 55.3729 40.7168L29.2066 139.222C29.0662 140.259 29.2066 140.582 30.0752 140.582H43.1584C44.027 140.582 44.341 140.293 44.4814 139.545ZM143.694 127.42C130.157 127.42 124.45 119.114 124.277 106.701L147.489 106.742C155.287 106.742 160.573 106.453 162.35 106.13C163.078 105.986 163.359 105.732 163.533 104.983C163.947 103.307 164.261 99.6934 164.261 95.2899C164.261 81.6947 157.512 64.912 138.128 64.912C118.984 64.912 108.126 82.5878 108.126 104.2C108.126 124.163 116.933 141.983 140.46 141.983C147.803 141.983 153.65 140.912 158.348 138.514C158.969 138.047 159.25 137.58 159.25 136.687V125.201C159.25 124.445 158.802 124.266 158.207 124.555C153.51 126.705 148.986 127.42 143.694 127.42Z" stroke="white" stroke-width="2" mask="url(#path-1-inside-1_1837_6183)"/>
<path d="M142.378 94.1014C146.935 94.1014 148.539 94.1014 148.993 93.9572C148.993 93.3458 149.133 92.8099 149.133 92.384C149.133 87.376 146.768 78.2118 137.507 78.2118C128.981 78.2118 125.292 85.9402 124.424 94.1014H142.378Z" stroke="white" stroke-width="2" mask="url(#path-1-inside-1_1837_6183)"/>
</mask>
<g mask="url(#mask0_1837_6183)">
<rect width="196" height="196" fill="white"/>
</g>
</g>
<defs>
<clipPath id="clip0_1837_6183">
<rect width="196" height="196" fill="white"/>
</clipPath>
</defs>
</svg>
