<svg width="196" height="196" viewBox="0 0 196 196" fill="none" xmlns="http://www.w3.org/2000/svg">
<mask id="mask0_1826_6080" style="mask-type:alpha" maskUnits="userSpaceOnUse" x="0" y="0" width="196" height="196">
<mask id="path-1-inside-1_1826_6080" fill="white">
<path d="M90.1053 97.3233C87.5996 87.1974 81.7196 65.015 79.5279 54.2777H79.3542C77.4766 64.9738 72.7391 83.1167 69.0908 97.3233H90.1053Z"/>
<path fill-rule="evenodd" clip-rule="evenodd" d="M196 0H0V196H196V0ZM58.1926 139.655L65.2554 112.21L93.8004 112.203L101.177 139.792C101.318 140.403 101.732 140.582 102.5 140.582H117.187C117.915 140.582 118.089 140.149 117.915 139.4L89.5507 40.5039C89.4104 39.7551 89.1031 39.6108 88.5084 39.6108H69.8525C69.3982 39.6108 69.0841 39.8925 69.0841 40.5039L42.9178 139.256C42.7775 140.293 42.9178 140.582 43.8199 140.582H56.903C57.7717 140.582 58.0523 140.445 58.1926 139.655ZM131.206 67.234C131.206 66.5195 131.486 66.231 132.215 66.231H146.207C147.008 66.231 147.282 66.5195 147.282 67.3027V139.613C147.282 140.362 147.142 140.651 146.24 140.651H132.455C131.553 140.651 131.272 140.218 131.272 139.469V67.2271L131.206 67.234ZM139.317 37.0347C134.166 37.0347 130.197 40.5107 130.197 46.4118H130.163C130.163 52.4641 133.818 55.789 139.144 55.789C144.61 55.789 148.438 52.4572 148.438 46.4118C148.438 40.8267 144.75 37.0347 139.317 37.0347Z"/>
</mask>
<path d="M90.1053 97.3233C87.5996 87.1974 81.7196 65.015 79.5279 54.2777H79.3542C77.4766 64.9738 72.7391 83.1167 69.0908 97.3233H90.1053Z" stroke="white" stroke-width="2" mask="url(#path-1-inside-1_1826_6080)"/>
<path fill-rule="evenodd" clip-rule="evenodd" d="M196 0H0V196H196V0ZM58.1926 139.655L65.2554 112.21L93.8004 112.203L101.177 139.792C101.318 140.403 101.732 140.582 102.5 140.582H117.187C117.915 140.582 118.089 140.149 117.915 139.4L89.5507 40.5039C89.4104 39.7551 89.1031 39.6108 88.5084 39.6108H69.8525C69.3982 39.6108 69.0841 39.8925 69.0841 40.5039L42.9178 139.256C42.7775 140.293 42.9178 140.582 43.8199 140.582H56.903C57.7717 140.582 58.0523 140.445 58.1926 139.655ZM131.206 67.234C131.206 66.5195 131.486 66.231 132.215 66.231H146.207C147.008 66.231 147.282 66.5195 147.282 67.3027V139.613C147.282 140.362 147.142 140.651 146.24 140.651H132.455C131.553 140.651 131.272 140.218 131.272 139.469V67.2271L131.206 67.234ZM139.317 37.0347C134.166 37.0347 130.197 40.5107 130.197 46.4118H130.163C130.163 52.4641 133.818 55.789 139.144 55.789C144.61 55.789 148.438 52.4572 148.438 46.4118C148.438 40.8267 144.75 37.0347 139.317 37.0347Z" stroke="white" stroke-width="2" mask="url(#path-1-inside-1_1826_6080)"/>
</mask>
<g mask="url(#mask0_1826_6080)">
<rect width="196" height="196" fill="white"/>
</g>
</svg>
