<svg width="196" height="196" viewBox="0 0 196 196" fill="none" xmlns="http://www.w3.org/2000/svg">
<mask id="mask0_1837_6167" style="mask-type:alpha" maskUnits="userSpaceOnUse" x="0" y="16" width="196" height="164">
<mask id="path-1-inside-1_1837_6167" fill="white">
<path d="M172.074 66.9897L110.672 18.4545C106.65 15.2761 99.8919 15.2903 95.4758 18.4714C91.0041 21.6856 90.4885 27.014 94.4625 30.3739L119.999 51.7623H42.0305C35.5943 51.765 29.4073 56.2006 28.1865 61.6964C26.9244 67.2919 31.293 71.8804 37.985 71.9016H77.4453L6.74977 127.749C0.10606 132.981 -2.03807 141.691 2.14645 147.198C6.38993 152.803 15.4232 152.815 22.1358 147.229L60.5721 114.856C60.5721 114.856 60.0082 119.223 60.053 121.847C61.2087 143.991 77.6118 164.518 97.9219 173.61C132.919 189.563 180.169 174.959 193.455 133.382C199.774 111.572 194.93 85.6378 172.074 66.9901L172.074 66.9897ZM106.982 144.298C79.3417 129.408 79.3414 91.9803 106.982 77.0901C134.623 62.1999 169.36 80.9138 169.36 110.694C169.36 140.474 134.623 159.188 106.982 144.298ZM115.4 130.898C97.7692 121.408 97.7692 97.553 115.4 88.0629C133.03 78.5727 155.187 90.4997 155.187 109.48C155.187 128.461 133.03 140.388 115.4 130.898Z"/>
</mask>
<path d="M172.074 66.9897L110.672 18.4545C106.65 15.2761 99.8919 15.2903 95.4758 18.4714C91.0041 21.6856 90.4885 27.014 94.4625 30.3739L119.999 51.7623H42.0305C35.5943 51.765 29.4073 56.2006 28.1865 61.6964C26.9244 67.2919 31.293 71.8804 37.985 71.9016H77.4453L6.74977 127.749C0.10606 132.981 -2.03807 141.691 2.14645 147.198C6.38993 152.803 15.4232 152.815 22.1358 147.229L60.5721 114.856C60.5721 114.856 60.0082 119.223 60.053 121.847C61.2087 143.991 77.6118 164.518 97.9219 173.61C132.919 189.563 180.169 174.959 193.455 133.382C199.774 111.572 194.93 85.6378 172.074 66.9901L172.074 66.9897ZM106.982 144.298C79.3417 129.408 79.3414 91.9803 106.982 77.0901C134.623 62.1999 169.36 80.9138 169.36 110.694C169.36 140.474 134.623 159.188 106.982 144.298ZM115.4 130.898C97.7692 121.408 97.7692 97.553 115.4 88.0629C133.03 78.5727 155.187 90.4997 155.187 109.48C155.187 128.461 133.03 140.388 115.4 130.898Z" stroke="white" stroke-width="2" mask="url(#path-1-inside-1_1837_6167)"/>
</mask>
<g mask="url(#mask0_1837_6167)">
<rect width="196" height="196" fill="white"/>
</g>
</svg>
