<svg width="196" height="196" viewBox="0 0 196 196" fill="none" xmlns="http://www.w3.org/2000/svg">
<g clip-path="url(#clip0_1826_6207)">
<mask id="mask0_1826_6207" style="mask-type:alpha" maskUnits="userSpaceOnUse" x="24" y="0" width="148" height="196">
<mask id="path-1-inside-1_1826_6207" fill="white">
<path d="M61.2663 0H82.32V8.80367H70.07V17.6073H82.32V26.411H61.2663V0ZM86.5258 0H107.588V7.66033H95.3377V9.1875H107.588V26.7948H86.5258V18.7588H98.7758V17.2235H86.5258V0ZM111.802 0H132.847V7.66033H120.597V9.1875H132.847V26.7948H111.802V18.7588H124.052V17.2235H111.802V0Z"/>
<path fill-rule="evenodd" clip-rule="evenodd" d="M97.9265 196L41.2172 180.255L24.5 38.5222H171.5L154.791 180.238L97.9265 196ZM57.5505 102.679L59.1103 120.058H119.356L117.339 142.598L97.951 147.841H97.9347L78.5797 142.615L77.3383 128.756H59.8862L62.3198 156.049L97.9265 165.93L133.59 156.049L137.935 107.343L138.36 102.679L141.496 67.4893H54.4227L56.007 84.8762H122.451L120.867 102.679H57.5505Z"/>
</mask>
<path d="M61.2663 0H82.32V8.80367H70.07V17.6073H82.32V26.411H61.2663V0ZM86.5258 0H107.588V7.66033H95.3377V9.1875H107.588V26.7948H86.5258V18.7588H98.7758V17.2235H86.5258V0ZM111.802 0H132.847V7.66033H120.597V9.1875H132.847V26.7948H111.802V18.7588H124.052V17.2235H111.802V0Z" stroke="white" stroke-width="2" mask="url(#path-1-inside-1_1826_6207)"/>
<path fill-rule="evenodd" clip-rule="evenodd" d="M97.9265 196L41.2172 180.255L24.5 38.5222H171.5L154.791 180.238L97.9265 196ZM57.5505 102.679L59.1103 120.058H119.356L117.339 142.598L97.951 147.841H97.9347L78.5797 142.615L77.3383 128.756H59.8862L62.3198 156.049L97.9265 165.93L133.59 156.049L137.935 107.343L138.36 102.679L141.496 67.4893H54.4227L56.007 84.8762H122.451L120.867 102.679H57.5505Z" stroke="white" stroke-width="2" mask="url(#path-1-inside-1_1826_6207)"/>
</mask>
<g mask="url(#mask0_1826_6207)">
<rect width="196" height="196" fill="white"/>
</g>
</g>
<defs>
<clipPath id="clip0_1826_6207">
<rect width="196" height="196" fill="white"/>
</clipPath>
</defs>
</svg>
