<svg width="196" height="196" viewBox="0 0 196 196" fill="none" xmlns="http://www.w3.org/2000/svg">
<mask id="mask0_1837_6160" style="mask-type:alpha" maskUnits="userSpaceOnUse" x="16" y="0" width="164" height="196">
<mask id="path-1-inside-1_1837_6160" fill="white">
<path d="M16.0781 150.585L46.3073 127.49C62.3722 148.396 79.4365 158.025 98.4342 158.025C117.334 158.025 133.906 148.503 149.25 127.776L179.922 150.308C157.787 180.198 130.285 196 98.4342 196C66.6895 196 38.9179 180.304 16.0781 150.585ZM98.3277 50.225L44.5214 96.4483L19.6499 67.7017L98.4506 0L176.629 67.7507L151.642 96.4075L98.3277 50.225Z"/>
</mask>
<path d="M16.0781 150.585L46.3073 127.49C62.3722 148.396 79.4365 158.025 98.4342 158.025C117.334 158.025 133.906 148.503 149.25 127.776L179.922 150.308C157.787 180.198 130.285 196 98.4342 196C66.6895 196 38.9179 180.304 16.0781 150.585ZM98.3277 50.225L44.5214 96.4483L19.6499 67.7017L98.4506 0L176.629 67.7507L151.642 96.4075L98.3277 50.225Z" stroke="white" stroke-width="2" mask="url(#path-1-inside-1_1837_6160)"/>
</mask>
<g mask="url(#mask0_1837_6160)">
<rect width="196" height="196" fill="white"/>
</g>
</svg>
