<svg width="196" height="196" viewBox="0 0 196 196" fill="none" xmlns="http://www.w3.org/2000/svg">
<mask id="mask0_1826_6148" style="mask-type:alpha" maskUnits="userSpaceOnUse" x="0" y="0" width="196" height="196">
<g clip-path="url(#clip0_1826_6148)">
<mask id="path-1-inside-1_1826_6148" fill="white">
<path fill-rule="evenodd" clip-rule="evenodd" d="M157.146 35.1263C157.146 42.481 154.225 49.5346 149.025 54.7352C143.825 59.9358 136.772 62.8575 129.417 62.8575H101.688V7.395H129.417C136.764 7.41937 143.803 10.3489 148.998 15.5442C154.193 20.7396 157.122 27.779 157.146 35.1263ZM38.8355 35.1263C38.8599 27.779 41.7891 20.7396 46.9841 15.5442C52.179 10.3489 59.2179 7.41937 66.5646 7.395H94.2937V62.8575H66.5646C59.2104 62.8575 52.1574 59.9358 46.9572 54.7352C41.7569 49.5346 38.8355 42.481 38.8355 35.1263ZM66.5646 188.573C59.2104 188.573 52.1574 185.651 46.9572 180.45C41.7569 175.25 38.8355 168.196 38.8355 160.841C38.8355 153.487 41.7569 146.433 46.9572 141.232C52.1574 136.032 59.2104 133.11 66.5646 133.11H94.2937V160.841C94.2694 168.189 91.3401 175.228 86.1452 180.423C80.9502 185.619 73.9113 188.548 66.5646 188.573ZM94.2937 125.715H66.5646C59.2104 125.715 52.1574 122.793 46.9572 117.593C41.7569 112.392 38.8355 105.339 38.8355 97.9838C38.8355 90.629 41.7569 83.5754 46.9572 78.3748C52.1574 73.1742 59.2104 70.2525 66.5646 70.2525H94.2937V125.715ZM129.417 125.715C122.063 125.715 115.01 122.793 109.81 117.593C104.61 112.392 101.688 105.339 101.688 97.9838C101.688 90.629 104.61 83.5754 109.81 78.3748C115.01 73.1742 122.063 70.2525 129.417 70.2525C136.772 70.2525 143.825 73.1742 149.025 78.3748C154.225 83.5754 157.146 90.629 157.146 97.9838C157.146 105.339 154.225 112.392 149.025 117.593C143.825 122.793 136.772 125.715 129.417 125.715Z"/>
</mask>
<path fill-rule="evenodd" clip-rule="evenodd" d="M157.146 35.1263C157.146 42.481 154.225 49.5346 149.025 54.7352C143.825 59.9358 136.772 62.8575 129.417 62.8575H101.688V7.395H129.417C136.764 7.41937 143.803 10.3489 148.998 15.5442C154.193 20.7396 157.122 27.779 157.146 35.1263ZM38.8355 35.1263C38.8599 27.779 41.7891 20.7396 46.9841 15.5442C52.179 10.3489 59.2179 7.41937 66.5646 7.395H94.2937V62.8575H66.5646C59.2104 62.8575 52.1574 59.9358 46.9572 54.7352C41.7569 49.5346 38.8355 42.481 38.8355 35.1263ZM66.5646 188.573C59.2104 188.573 52.1574 185.651 46.9572 180.45C41.7569 175.25 38.8355 168.196 38.8355 160.841C38.8355 153.487 41.7569 146.433 46.9572 141.232C52.1574 136.032 59.2104 133.11 66.5646 133.11H94.2937V160.841C94.2694 168.189 91.3401 175.228 86.1452 180.423C80.9502 185.619 73.9113 188.548 66.5646 188.573ZM94.2937 125.715H66.5646C59.2104 125.715 52.1574 122.793 46.9572 117.593C41.7569 112.392 38.8355 105.339 38.8355 97.9838C38.8355 90.629 41.7569 83.5754 46.9572 78.3748C52.1574 73.1742 59.2104 70.2525 66.5646 70.2525H94.2937V125.715ZM129.417 125.715C122.063 125.715 115.01 122.793 109.81 117.593C104.61 112.392 101.688 105.339 101.688 97.9838C101.688 90.629 104.61 83.5754 109.81 78.3748C115.01 73.1742 122.063 70.2525 129.417 70.2525C136.772 70.2525 143.825 73.1742 149.025 78.3748C154.225 83.5754 157.146 90.629 157.146 97.9838C157.146 105.339 154.225 112.392 149.025 117.593C143.825 122.793 136.772 125.715 129.417 125.715Z" stroke="white" stroke-width="2" mask="url(#path-1-inside-1_1826_6148)"/>
</g>
</mask>
<g mask="url(#mask0_1826_6148)">
<rect width="196" height="196" fill="white"/>
</g>
<defs>
<clipPath id="clip0_1826_6148">
<rect width="196" height="196" fill="white"/>
</clipPath>
</defs>
</svg>
