<svg width="196" height="196" viewBox="0 0 196 196" fill="none" xmlns="http://www.w3.org/2000/svg">
<g clip-path="url(#clip0_1826_6200)">
<mask id="mask0_1826_6200" style="mask-type:alpha" maskUnits="userSpaceOnUse" x="24" y="0" width="148" height="196">
<mask id="path-1-inside-1_1826_6200" fill="white">
<path d="M41.4867 0H50.323V8.73017H58.408V0H67.2443V26.4273H58.408V17.5828H50.323V26.4273H41.4948V0H41.4867ZM78.8573 8.76283H71.0827V0H95.4765V8.76283H87.6937V26.4273H78.8573V8.76283ZM99.3475 0H108.56L114.227 9.2855L119.887 0H129.099V26.4273H120.303V13.328L114.227 22.7278H114.072L107.988 13.3362V26.4273H99.3475V0ZM133.492 0H142.337V17.6972H154.75V26.4355H133.492V0Z"/>
<path fill-rule="evenodd" clip-rule="evenodd" d="M41.209 180.255L24.5 38.5222H171.5L154.783 180.238L97.9183 196L41.209 180.255ZM74.9945 102.671L73.4102 84.868H139.928L141.479 67.4893H54.4227L59.1103 120.058H119.356L117.339 142.598L97.951 147.841H97.9347L78.5797 142.615L77.3383 128.756H59.878L62.3117 156.049L97.9183 165.93L133.582 156.049L137.927 107.343L138.352 102.679H74.9945V102.671Z"/>
</mask>
<path d="M41.4867 0H50.323V8.73017H58.408V0H67.2443V26.4273H58.408V17.5828H50.323V26.4273H41.4948V0H41.4867ZM78.8573 8.76283H71.0827V0H95.4765V8.76283H87.6937V26.4273H78.8573V8.76283ZM99.3475 0H108.56L114.227 9.2855L119.887 0H129.099V26.4273H120.303V13.328L114.227 22.7278H114.072L107.988 13.3362V26.4273H99.3475V0ZM133.492 0H142.337V17.6972H154.75V26.4355H133.492V0Z" stroke="white" stroke-width="2" mask="url(#path-1-inside-1_1826_6200)"/>
<path fill-rule="evenodd" clip-rule="evenodd" d="M41.209 180.255L24.5 38.5222H171.5L154.783 180.238L97.9183 196L41.209 180.255ZM74.9945 102.671L73.4102 84.868H139.928L141.479 67.4893H54.4227L59.1103 120.058H119.356L117.339 142.598L97.951 147.841H97.9347L78.5797 142.615L77.3383 128.756H59.878L62.3117 156.049L97.9183 165.93L133.582 156.049L137.927 107.343L138.352 102.679H74.9945V102.671Z" stroke="white" stroke-width="2" mask="url(#path-1-inside-1_1826_6200)"/>
</mask>
<g mask="url(#mask0_1826_6200)">
<rect width="196" height="196" fill="white"/>
</g>
</g>
<defs>
<clipPath id="clip0_1826_6200">
<rect width="196" height="196" fill="white"/>
</clipPath>
</defs>
</svg>
