<svg width="196" height="196" viewBox="0 0 196 196" fill="none" xmlns="http://www.w3.org/2000/svg">
<mask id="mask0_1826_6040" style="mask-type:alpha" maskUnits="userSpaceOnUse" x="0" y="0" width="196" height="196">
<mask id="path-1-inside-1_1826_6040" fill="white">
<path d="M187.08 20.5118H115.698V0H103.077L0 18.2787V177.768L101.853 196H115.698V173.209H182.495C186.301 173.027 190.53 173.415 193.779 170.999C196.361 166.919 195.735 161.814 195.958 157.21V29.446C196.47 24.2042 192.199 20.0105 187.08 20.5118ZM65.2829 105.567C60.2306 108.21 54.4432 107.846 48.9456 107.663L48.9234 134.396L35.6797 133.257L35.7019 60.2133C47.7884 60.8056 62.434 55.3133 72.4503 64.5888C82.0436 76.5087 79.5059 98.4331 65.2829 105.567ZM185.322 162.453H115.698V148.139H169.117V139.024H115.698V127.628H169.117V118.512H115.72C115.72 118.512 115.698 109.578 115.676 105.111C124.49 107.914 134.528 107.846 142.407 102.422C150.933 97.2482 155.384 87.38 156.119 77.5344H126.827V47.7698L115.698 50.0718V31.2679H185.322V162.453V162.453ZM131.277 43.0062C146.746 43.7352 159.769 57.1253 160.593 72.9194H131.277V43.0062ZM48.9234 72.5427C53.3082 72.3377 58.7391 71.5173 61.6994 75.7333C64.2371 80.2006 64.1035 86.0806 61.9888 90.6843C59.4515 95.3789 53.7086 94.9234 49.2795 95.4702C48.8124 87.8354 48.8564 80.2006 48.9234 72.5427Z"/>
</mask>
<path d="M187.08 20.5118H115.698V0H103.077L0 18.2787V177.768L101.853 196H115.698V173.209H182.495C186.301 173.027 190.53 173.415 193.779 170.999C196.361 166.919 195.735 161.814 195.958 157.21V29.446C196.47 24.2042 192.199 20.0105 187.08 20.5118ZM65.2829 105.567C60.2306 108.21 54.4432 107.846 48.9456 107.663L48.9234 134.396L35.6797 133.257L35.7019 60.2133C47.7884 60.8056 62.434 55.3133 72.4503 64.5888C82.0436 76.5087 79.5059 98.4331 65.2829 105.567ZM185.322 162.453H115.698V148.139H169.117V139.024H115.698V127.628H169.117V118.512H115.72C115.72 118.512 115.698 109.578 115.676 105.111C124.49 107.914 134.528 107.846 142.407 102.422C150.933 97.2482 155.384 87.38 156.119 77.5344H126.827V47.7698L115.698 50.0718V31.2679H185.322V162.453V162.453ZM131.277 43.0062C146.746 43.7352 159.769 57.1253 160.593 72.9194H131.277V43.0062ZM48.9234 72.5427C53.3082 72.3377 58.7391 71.5173 61.6994 75.7333C64.2371 80.2006 64.1035 86.0806 61.9888 90.6843C59.4515 95.3789 53.7086 94.9234 49.2795 95.4702C48.8124 87.8354 48.8564 80.2006 48.9234 72.5427Z" stroke="white" stroke-width="2" mask="url(#path-1-inside-1_1826_6040)"/>
</mask>
<g mask="url(#mask0_1826_6040)">
<rect width="196" height="196" fill="white"/>
</g>
</svg>
