<svg width="196" height="196" viewBox="0 0 196 196" fill="none" xmlns="http://www.w3.org/2000/svg">
<mask id="mask0_2055_7587" style="mask-type:alpha" maskUnits="userSpaceOnUse" x="12" y="6" width="172" height="184">
<mask id="path-1-inside-1_2055_7587" fill="white">
<path d="M110.207 66.3822V190H85.6231V57.7051L110.207 66.3822Z"/>
<path d="M12 54.8528C12 23.2352 30.3749 6 51.9179 6C73.4609 6 76.5022 8.85272 100.96 20.3825C125.417 31.9122 131.627 34.7649 143.919 34.7649C156.211 34.7649 162.294 26.0879 162.294 8.85271H183.71C186.752 43.3231 165.335 57.7055 143.792 57.7055C122.249 57.7055 116.167 54.8528 94.7504 43.3231C73.3341 31.7933 67.1247 28.9406 54.8325 28.9406C42.5403 28.9406 36.4576 37.6176 33.4162 57.7055L12 54.8528Z"/>
</mask>
<path d="M110.207 66.3822V190H85.6231V57.7051L110.207 66.3822Z" stroke="white" stroke-width="2" mask="url(#path-1-inside-1_2055_7587)"/>
<path d="M12 54.8528C12 23.2352 30.3749 6 51.9179 6C73.4609 6 76.5022 8.85272 100.96 20.3825C125.417 31.9122 131.627 34.7649 143.919 34.7649C156.211 34.7649 162.294 26.0879 162.294 8.85271H183.71C186.752 43.3231 165.335 57.7055 143.792 57.7055C122.249 57.7055 116.167 54.8528 94.7504 43.3231C73.3341 31.7933 67.1247 28.9406 54.8325 28.9406C42.5403 28.9406 36.4576 37.6176 33.4162 57.7055L12 54.8528Z" stroke="white" stroke-width="2" mask="url(#path-1-inside-1_2055_7587)"/>
</mask>
<g mask="url(#mask0_2055_7587)">
<rect x="0.5" y="0.5" width="195" height="195" fill="white" stroke="white"/>
</g>
</svg>
