<svg width="1680" height="650" viewBox="0 0 1680 650" fill="none" xmlns="http://www.w3.org/2000/svg">
	<g id="Hi">
		<g clip-path="url(#clip0_2229_11041)">
			<g id="lines">
				<g id="fst">
					<path d="M0 515.916H1.00615V750H0V515.916Z" fill="#DA2063"/>
					<path d="M33.9219 233.418H34.928V749.999H33.9219V233.418Z" fill="#DA2063"/>
					<path d="M67.8398 496.98H68.846V750H67.8398V496.98Z" fill="#DA2063"/>
					<path d="M101.752 593.703H102.758V749.998H101.752V593.703Z" fill="#DA2063"/>
					<path d="M135.674 483.162H136.68V749.999H135.674V483.162Z" fill="#DA2063"/>
					<path d="M169.6 441.709H170.606V750H169.6V441.709Z" fill="#DA2063"/>
					<path d="M203.521 456.037H204.528V749.998H203.521V456.037Z" fill="#DA2063"/>
					<path d="M237.432 218.066H238.438V750H237.432V218.066Z" fill="#DA2063"/>
					<path d="M271.352 363.919H272.358V749.998H271.352V363.919Z" fill="#DA2063"/>
					<path d="M305.273 516.938H306.28V749.998H305.273V516.938Z" fill="#DA2063"/>
					<path d="M339.195 206.806H340.201V749.998H339.195V206.806Z" fill="#DA2063"/>
					<path d="M373.105 391.554H374.112V749.998H373.105V391.554Z" fill="#DA2063"/>
					<path d="M407.027 635.668H408.034V749.998H407.027V635.668Z" fill="#DA2063"/>
					<path d="M440.947 332.19H441.953V750H440.947V332.19Z" fill="#DA2063"/>
					<path d="M474.873 559.928H475.879V750H474.873V559.928Z" fill="#DA2063"/>
					<path d="M508.779 518.987H509.785V750.001H508.779V518.987Z" fill="#DA2063"/>
					<path d="M542.705 514.892H543.711V749.999H542.705V514.892Z" fill="#DA2063"/>
					<path d="M576.625 229.836H577.631V749.999H576.625V229.836Z" fill="#DA2063"/>
					<path d="M610.547 415.097H611.553V749.999H610.547V415.097Z" fill="#DA2063"/>
					<path d="M644.457 478.556H645.463V749.999H644.457V478.556Z" fill="#DA2063"/>
					<path d="M678.379 150H679.385V749.999H678.379V150Z" fill="#DA2063"/>
					<path d="M712.301 587.562H713.307V749.998H712.301V587.562Z" fill="#DA2063"/>
					<path d="M746.219 370.572H747.225V749.999H746.219V370.572Z" fill="#DA2063"/>
					<path d="M780.129 350.613H781.135V749.999H780.129V350.613Z" fill="#DA2063"/>
					<path d="M814.051 159.724H815.057V749.999H814.051V159.724Z" fill="#DA2063"/>
					<path d="M847.977 275.385H848.983V750H847.977V275.385Z" fill="#DA2063"/>
					<path d="M881.898 494.42H882.905V749.998H881.898V494.42Z" fill="#DA2063"/>
					<path d="M915.82 396.16H916.826V749.998H915.82V396.16Z" fill="#DA2063"/>
					<path d="M949.73 601.893H950.737V749.999H949.73V601.893Z" fill="#DA2063"/>
					<path d="M983.652 565.556H984.659V749.998H983.652V565.556Z" fill="#DA2063"/>
					<path d="M1017.57 170.98H1018.58V749.997H1017.57V170.98Z" fill="#DA2063"/>
					<path d="M1051.49 532.802H1052.5V749.997H1051.49V532.802Z" fill="#DA2063"/>
					<path d="M1085.4 598.823H1086.41V750.001H1085.4V598.823Z" fill="#DA2063"/>
					<path d="M1119.32 203.223H1120.33V749.998H1119.32V203.223Z" fill="#DA2063"/>
					<path d="M1153.25 247.237H1154.26V750H1153.25V247.237Z" fill="#DA2063"/>
					<path d="M1187.17 637.718H1188.18V750.001H1187.17V637.718Z" fill="#DA2063"/>
					<path d="M1221.09 215.508H1222.09V750H1221.09V215.508Z" fill="#DA2063"/>
					<path d="M1255 369.038H1256.01V750H1255V369.038Z" fill="#DA2063"/>
					<path d="M1288.93 577.326H1289.93V749.998H1288.93V577.326Z" fill="#DA2063"/>
					<path d="M1322.85 181.729H1323.85V749.999H1322.85V181.729Z" fill="#DA2063"/>
					<path d="M1356.76 351.125H1357.76V749.999H1356.76V351.125Z" fill="#DA2063"/>
					<path d="M1390.68 529.732H1391.68V749.999H1390.68V529.732Z" fill="#DA2063"/>
					<path d="M1424.6 632.086H1425.6V749.998H1424.6V632.086Z" fill="#DA2063"/>
					<path d="M1458.52 603.427H1459.53V749.998H1458.52V603.427Z" fill="#DA2063"/>
					<path d="M1492.43 444.267H1493.44V749.998H1492.43V444.267Z" fill="#DA2063"/>
					<path d="M1526.36 251.842H1527.36V749.999H1526.36V251.842Z" fill="#DA2063"/>
					<path d="M1560.28 310.185H1561.28V750H1560.28V310.185Z" fill="#DA2063"/>
					<path d="M1594.2 428.915H1595.21V750H1594.2V428.915Z" fill="#DA2063"/>
					<path d="M1628.11 270.777H1629.12V749.999H1628.11V270.777Z" fill="#DA2063"/>
					<path d="M1662.03 384.391H1663.04V749.999H1662.03V384.391Z" fill="#DA2063"/>
				</g>
				<g id="snd">
					<path d="M16.9629 354.707H17.969V750H16.9629L16.9629 354.707Z" fill="#DA2063"/>
					<path d="M50.8848 208.854H51.8909V750.002H50.8848V208.854Z" fill="#DA2063"/>
					<path d="M84.7949 284.084H85.8011V750.001H84.7949V284.084Z" fill="#DA2063"/>
					<path d="M118.715 359.824H119.721V750H118.715V359.824Z" fill="#DA2063"/>
					<path d="M152.637 285.62H153.643V750.002H152.637V285.62Z" fill="#DA2063"/>
					<path d="M186.559 428.402H187.565V750H186.559V428.402Z" fill="#DA2063"/>
					<path d="M220.469 647.95H221.475V749.999H220.469V647.95Z" fill="#DA2063"/>
					<path d="M254.391 540.992H255.397V750.001H254.391V540.992Z" fill="#DA2063"/>
					<path d="M288.311 408.443H289.317V750H288.311V408.443Z" fill="#DA2063"/>
					<path d="M322.236 410.491H323.242V750.001H322.236V410.491Z" fill="#DA2063"/>
					<path d="M356.146 195.549H357.153V750.002H356.146V195.549Z" fill="#DA2063"/>
					<path d="M390.068 311.208H391.075V750.001H390.068V311.208Z" fill="#DA2063"/>
					<path d="M423.986 540.992H424.992V750.001H423.986V540.992Z" fill="#DA2063"/>
					<path d="M457.91 375.18H458.916V750.002H457.91V375.18Z" fill="#DA2063"/>
					<path d="M491.832 471.902H492.838V750H491.832V471.902Z" fill="#DA2063"/>
					<path d="M525.742 520.521H526.748V750H525.742V520.521Z" fill="#DA2063"/>
					<path d="M559.664 609.056H560.67V749.999H559.664V609.056Z" fill="#DA2063"/>
					<path d="M593.582 308.139H594.588V750.003H593.582V308.139Z" fill="#DA2063"/>
					<path d="M627.508 203.735H628.514V750H627.508V203.735Z" fill="#DA2063"/>
					<path d="M661.414 191.453H662.42V750H661.414V191.453Z" fill="#DA2063"/>
					<path d="M695.344 424.308H696.35V750H695.344V424.308Z" fill="#DA2063"/>
					<path d="M729.262 329.119H730.268V750.001H729.262V329.119Z" fill="#DA2063"/>
					<path d="M763.184 164.841H764.19V750H763.184V164.841Z" fill="#DA2063"/>
					<path d="M797.094 502.61H798.1V750.002H797.094V502.61Z" fill="#DA2063"/>
					<path d="M831.016 619.292H832.022V750H831.016V619.292Z" fill="#DA2063"/>
					<path d="M864.938 607.01H865.944V750H864.938V607.01Z" fill="#DA2063"/>
					<path d="M898.855 540.479H899.862V750H898.855V540.479Z" fill="#DA2063"/>
					<path d="M932.766 458.086H933.772V750.001H932.766V458.086Z" fill="#DA2063"/>
					<path d="M966.688 246.213H967.694V750.001H966.688V246.213Z" fill="#DA2063"/>
					<path d="M1000.61 524.615H1001.62V750.001H1000.61V524.615Z" fill="#DA2063"/>
					<path d="M1034.54 615.709H1035.55V750H1034.54V615.709Z" fill="#DA2063"/>
					<path d="M1068.45 473.95H1069.46V750.001H1068.45V473.95Z" fill="#DA2063"/>
					<path d="M1102.37 280.5H1103.37V750H1102.37V280.5Z" fill="#DA2063"/>
					<path d="M1136.29 159.724H1137.3V750.001H1136.29V159.724Z" fill="#DA2063"/>
					<path d="M1170.21 184.287H1171.22V749.999H1170.21V184.287Z" fill="#DA2063"/>
					<path d="M1204.12 453.991H1205.13V750.001H1204.12V453.991Z" fill="#DA2063"/>
					<path d="M1238.04 317.862H1239.05V750.003H1238.04V317.862Z" fill="#DA2063"/>
					<path d="M1271.96 216.529H1272.97V750H1271.96V216.529Z" fill="#DA2063"/>
					<path d="M1305.89 325.537H1306.89V750.001H1305.89V325.537Z" fill="#DA2063"/>
					<path d="M1339.81 251.842H1340.81V750H1339.81V251.842Z" fill="#DA2063"/>
					<path d="M1373.72 185.312H1374.73V750H1373.72V185.312Z" fill="#DA2063"/>
					<path d="M1407.64 151.536H1408.65V750.001H1407.64V151.536Z" fill="#DA2063"/>
					<path d="M1441.56 560.952H1442.57V750.002H1441.56V560.952Z" fill="#DA2063"/>
					<path d="M1475.48 153.07H1476.49V750H1475.48V153.07Z" fill="#DA2063"/>
					<path d="M1509.39 614.175H1510.4V750.001H1509.39V614.175Z" fill="#DA2063"/>
					<path d="M1543.31 518.475H1544.32V750.001H1543.31V518.475Z" fill="#DA2063"/>
					<path d="M1577.23 376.714H1578.24V750.001H1577.23V376.714Z" fill="#DA2063"/>
					<path d="M1611.16 433.01H1612.17V750.002H1611.16V433.01Z" fill="#DA2063"/>
					<path d="M1645.07 458.598H1646.08V750.001H1645.07V458.598Z" fill="#DA2063"/>
					<path d="M1678.99 251.329H1680V749.999H1678.99V251.329Z" fill="#DA2063"/>
				</g>
			</g>
			<g id="Hi-text">
				<g id="Hi, I&#226;&#128;&#153;m Artsiom Papulin - UX">
					<g id="Hi, I&#226;&#128;&#153;m Artsiom Papulin - UX/UI &#38; WEB Designer" opacity="0.4" filter="url(#filter0_f_2229_11041)">
						<path d="M407.541 76.0003H437.401L460.246 216.022H438.202L434.194 188.218V188.618H409.144L405.136 216.022H384.695L407.541 76.0003ZM431.589 169.615L421.769 100.404H421.369L411.749 169.615H431.589Z" fill="#DA2063"/>
						<path d="M470.941 76.0003H503.606C514.962 76.0003 523.245 78.6674 528.456 84.0016C533.666 89.2024 536.271 97.2703 536.271 108.205V116.807C536.271 131.342 531.462 140.544 521.843 144.411V144.811C527.187 146.411 530.927 149.678 533.065 154.612C535.336 159.547 536.472 166.148 536.472 174.416V199.019C536.472 203.02 536.605 206.287 536.873 208.821C537.14 211.221 537.808 213.622 538.877 216.022H516.432C515.63 213.755 515.096 211.621 514.829 209.621C514.561 207.621 514.428 204.02 514.428 198.819V173.215C514.428 166.814 513.359 162.347 511.221 159.813C509.217 157.28 505.677 156.013 500.6 156.013H492.985V216.022H470.941V76.0003ZM501.001 136.01C505.41 136.01 508.683 134.876 510.821 132.609C513.092 130.342 514.227 126.541 514.227 121.207V110.406C514.227 105.338 513.292 101.671 511.422 99.4039C509.685 97.1369 506.879 96.0034 503.005 96.0034H492.985V136.01H501.001Z" fill="#DA2063"/>
						<path d="M568.609 96.0034H545.563V76.0003H613.699V96.0034H590.653V216.022H568.609V96.0034Z" fill="#DA2063"/>
						<path d="M653.03 218.022C642.342 218.022 634.259 215.022 628.781 209.021C623.304 202.887 620.565 194.152 620.565 182.817V174.816H641.406V184.417C641.406 193.485 645.214 198.019 652.829 198.019C656.57 198.019 659.376 196.952 661.246 194.819C663.25 192.552 664.252 188.951 664.252 184.017C664.252 178.149 662.916 173.015 660.244 168.615C657.572 164.081 652.629 158.68 645.414 152.412C636.33 144.411 629.984 137.21 626.376 130.809C622.769 124.274 620.966 116.94 620.966 108.805C620.966 97.737 623.771 89.2024 629.382 83.2014C634.994 77.0671 643.143 74 653.831 74C664.386 74 672.335 77.0671 677.679 83.2014C683.156 89.2024 685.895 97.8704 685.895 109.205V115.006H665.054V107.805C665.054 103.004 664.118 99.5373 662.248 97.4036C660.378 95.1366 657.639 94.0031 654.032 94.0031C646.684 94.0031 643.01 98.4705 643.01 107.405C643.01 112.473 644.346 117.207 647.018 121.607C649.823 126.008 654.833 131.342 662.048 137.61C671.266 145.611 677.612 152.879 681.086 159.413C684.559 165.948 686.296 173.615 686.296 182.417C686.296 193.885 683.424 202.687 677.679 208.821C672.068 214.955 663.851 218.022 653.03 218.022Z" fill="#DA2063"/>
						<path d="M698.935 76.0003H720.979V216.022H698.935V76.0003Z" fill="#DA2063"/>
						<path d="M769.352 218.022C758.531 218.022 750.248 214.955 744.503 208.821C738.758 202.687 735.886 194.019 735.886 182.817V109.205C735.886 98.0037 738.758 89.3357 744.503 83.2014C750.248 77.0671 758.531 74 769.352 74C780.174 74 788.457 77.0671 794.202 83.2014C799.947 89.3357 802.819 98.0037 802.819 109.205V182.817C802.819 194.019 799.947 202.687 794.202 208.821C788.457 214.955 780.174 218.022 769.352 218.022ZM769.352 198.019C776.968 198.019 780.775 193.419 780.775 184.217V107.805C780.775 98.6038 776.968 94.0031 769.352 94.0031C761.737 94.0031 757.93 98.6038 757.93 107.805V184.217C757.93 193.419 761.737 198.019 769.352 198.019Z" fill="#DA2063"/>
						<path d="M817.727 76.0003H849.19L863.218 176.216H863.619L877.647 76.0003H909.11V216.022H888.268V110.006H887.867L871.835 216.022H853.398L837.366 110.006H836.966V216.022H817.727V76.0003Z" fill="#DA2063"/>
						<path d="M957.655 76.0003H990.12C1001.07 76.0003 1009.29 78.9341 1014.77 84.8017C1020.25 90.6692 1022.99 99.2706 1022.99 110.606V124.408C1022.99 135.743 1020.25 144.344 1014.77 150.212C1009.29 156.079 1001.07 159.013 990.12 159.013H979.699V216.022H957.655V76.0003ZM990.12 139.01C993.727 139.01 996.399 138.01 998.136 136.01C1000.01 134.009 1000.94 130.609 1000.94 125.808V109.205C1000.94 104.405 1000.01 101.004 998.136 99.0039C996.399 97.0036 993.727 96.0034 990.12 96.0034H979.699V139.01H990.12Z" fill="#DA2063"/>
						<path d="M1044.95 76.0003H1074.81L1097.65 216.022H1075.61L1071.6 188.218V188.618H1046.55L1042.54 216.022H1022.1L1044.95 76.0003ZM1068.99 169.615L1059.17 100.404H1058.77L1049.15 169.615H1068.99Z" fill="#DA2063"/>
						<path d="M1108.35 76.0003H1140.81C1151.77 76.0003 1159.98 78.9341 1165.46 84.8017C1170.94 90.6692 1173.68 99.2706 1173.68 110.606V124.408C1173.68 135.743 1170.94 144.344 1165.46 150.212C1159.98 156.079 1151.77 159.013 1140.81 159.013H1130.39V216.022H1108.35V76.0003ZM1140.81 139.01C1144.42 139.01 1147.09 138.01 1148.83 136.01C1150.7 134.009 1151.63 130.609 1151.63 125.808V109.205C1151.63 104.405 1150.7 101.004 1148.83 99.0039C1147.09 97.0036 1144.42 96.0034 1140.81 96.0034H1130.39V139.01H1140.81Z" fill="#DA2063"/>
						<path d="M1217.71 218.022C1207.03 218.022 1198.88 215.022 1193.26 209.021C1187.65 202.887 1184.85 194.152 1184.85 182.817V76.0003H1206.89V184.417C1206.89 189.218 1207.83 192.685 1209.7 194.819C1211.7 196.952 1214.51 198.019 1218.11 198.019C1221.72 198.019 1224.46 196.952 1226.33 194.819C1228.33 192.685 1229.34 189.218 1229.34 184.417V76.0003H1250.58V182.817C1250.58 194.152 1247.77 202.887 1242.16 209.021C1236.55 215.022 1228.4 218.022 1217.71 218.022Z" fill="#DA2063"/>
						<path d="M1266.28 76.0003H1288.32V196.019H1324.6V216.022H1266.28V76.0003Z" fill="#DA2063"/>
						<path d="M1335.17 76.0003H1357.21V216.022H1335.17V76.0003Z" fill="#DA2063"/>
						<path d="M1373.72 76.0003H1401.38L1422.82 159.813H1423.22V76.0003H1442.86V216.022H1420.21L1393.76 113.806H1393.36V216.022H1373.72V76.0003Z" fill="#DA2063"/>
					</g>
					<g id="Hi, I&#226;&#128;&#153;m Artsiom Papulin - UX/UI &#38; WEB Designer_2">
						<path d="M190 148.812H200.581V176.176H211.932V148.812H222.513V216.022H211.932V185.777H200.581V216.022H190V148.812Z" fill="white"/>
						<path d="M230.393 148.812H240.974V216.022H230.393V148.812Z" fill="white"/>
						<path d="M252.362 216.022H248.899V205.844H259.095V214.966L253.805 227.544H248.899L252.362 216.022Z" fill="white"/>
						<path d="M282.435 148.812H293.016V216.022H282.435V148.812Z" fill="white"/>
						<path d="M304.403 158.989H300.94V148.812H311.137V157.933L305.269 170.511H300.363L304.403 158.989Z" fill="white"/>
						<path d="M319.07 148.812H334.172L340.906 196.915H341.098L347.832 148.812H362.934V216.022H352.93V165.134H352.737L345.042 216.022H336.192L328.497 165.134H328.305V216.022H319.07V148.812Z" fill="white"/>
						<path d="M407.542 76.0003H437.402L460.247 216.022H438.203L434.195 188.218V188.618H409.145L405.137 216.022H384.697L407.542 76.0003ZM431.59 169.615L421.771 100.404H421.37L411.751 169.615H431.59Z" fill="#DA2063"/>
						<path d="M470.942 76.0003H503.607C514.963 76.0003 523.247 78.6674 528.457 84.0016C533.667 89.2024 536.273 97.2703 536.273 108.205V116.807C536.273 131.342 531.463 140.544 521.844 144.411V144.811C527.188 146.411 530.929 149.678 533.066 154.612C535.337 159.547 536.473 166.148 536.473 174.416V199.019C536.473 203.02 536.607 206.287 536.874 208.821C537.141 211.221 537.809 213.622 538.878 216.022H516.433C515.631 213.755 515.097 211.621 514.83 209.621C514.563 207.621 514.429 204.02 514.429 198.819V173.215C514.429 166.814 513.36 162.347 511.223 159.813C509.219 157.28 505.678 156.013 500.601 156.013H492.986V216.022H470.942V76.0003ZM501.002 136.01C505.411 136.01 508.684 134.876 510.822 132.609C513.093 130.342 514.229 126.541 514.229 121.207V110.406C514.229 105.338 513.293 101.671 511.423 99.4039C509.686 97.1369 506.881 96.0034 503.006 96.0034H492.986V136.01H501.002Z" fill="#DA2063"/>
						<path d="M568.611 96.0034H545.565V76.0003H613.701V96.0034H590.655V216.022H568.611V96.0034Z" fill="#DA2063"/>
						<path d="M653.031 218.022C642.343 218.022 634.26 215.022 628.782 209.021C623.305 202.887 620.566 194.152 620.566 182.817V174.816H641.408V184.417C641.408 193.485 645.215 198.019 652.83 198.019C656.571 198.019 659.377 196.952 661.247 194.819C663.251 192.552 664.253 188.951 664.253 184.017C664.253 178.149 662.917 173.015 660.245 168.615C657.573 164.081 652.63 158.68 645.416 152.412C636.331 144.411 629.985 137.21 626.378 130.809C622.77 124.274 620.967 116.94 620.967 108.805C620.967 97.737 623.772 89.2024 629.384 83.2014C634.995 77.0671 643.144 74 653.832 74C664.387 74 672.336 77.0671 677.68 83.2014C683.158 89.2024 685.896 97.8704 685.896 109.205V115.006H665.055V107.805C665.055 103.004 664.12 99.5373 662.249 97.4036C660.379 95.1366 657.64 94.0031 654.033 94.0031C646.685 94.0031 643.011 98.4705 643.011 107.405C643.011 112.473 644.347 117.207 647.019 121.607C649.824 126.008 654.834 131.342 662.049 137.61C671.267 145.611 677.613 152.879 681.087 159.413C684.56 165.948 686.297 173.615 686.297 182.417C686.297 193.885 683.425 202.687 677.68 208.821C672.069 214.955 663.852 218.022 653.031 218.022Z" fill="#DA2063"/>
						<path d="M698.936 76.0003H720.98V216.022H698.936V76.0003Z" fill="#DA2063"/>
						<path d="M769.354 218.022C758.532 218.022 750.249 214.955 744.504 208.821C738.759 202.687 735.887 194.019 735.887 182.817V109.205C735.887 98.0037 738.759 89.3357 744.504 83.2014C750.249 77.0671 758.532 74 769.354 74C780.175 74 788.458 77.0671 794.203 83.2014C799.948 89.3357 802.82 98.0037 802.82 109.205V182.817C802.82 194.019 799.948 202.687 794.203 208.821C788.458 214.955 780.175 218.022 769.354 218.022ZM769.354 198.019C776.969 198.019 780.776 193.419 780.776 184.217V107.805C780.776 98.6038 776.969 94.0031 769.354 94.0031C761.738 94.0031 757.931 98.6038 757.931 107.805V184.217C757.931 193.419 761.738 198.019 769.354 198.019Z" fill="#DA2063"/>
						<path d="M817.728 76.0003H849.191L863.219 176.216H863.62L877.648 76.0003H909.111V216.022H888.269V110.006H887.868L871.836 216.022H853.4L837.368 110.006H836.967V216.022H817.728V76.0003Z" fill="#DA2063"/>
						<path d="M957.656 76.0003H990.121C1001.08 76.0003 1009.29 78.9341 1014.77 84.8017C1020.25 90.6692 1022.99 99.2706 1022.99 110.606V124.408C1022.99 135.743 1020.25 144.344 1014.77 150.212C1009.29 156.079 1001.08 159.013 990.121 159.013H979.7V216.022H957.656V76.0003ZM990.121 139.01C993.728 139.01 996.4 138.01 998.137 136.01C1000.01 134.009 1000.94 130.609 1000.94 125.808V109.205C1000.94 104.405 1000.01 101.004 998.137 99.0039C996.4 97.0036 993.728 96.0034 990.121 96.0034H979.7V139.01H990.121Z" fill="#DA2063"/>
						<path d="M1044.95 76.0003H1074.81L1097.65 216.022H1075.61L1071.6 188.218V188.618H1046.55L1042.54 216.022H1022.1L1044.95 76.0003ZM1069 169.615L1059.18 100.404H1058.78L1049.16 169.615H1069Z" fill="#DA2063"/>
						<path d="M1108.35 76.0003H1140.81C1151.77 76.0003 1159.98 78.9341 1165.46 84.8017C1170.94 90.6692 1173.68 99.2706 1173.68 110.606V124.408C1173.68 135.743 1170.94 144.344 1165.46 150.212C1159.98 156.079 1151.77 159.013 1140.81 159.013H1130.39V216.022H1108.35V76.0003ZM1140.81 139.01C1144.42 139.01 1147.09 138.01 1148.83 136.01C1150.7 134.009 1151.63 130.609 1151.63 125.808V109.205C1151.63 104.405 1150.7 101.004 1148.83 99.0039C1147.09 97.0036 1144.42 96.0034 1140.81 96.0034H1130.39V139.01H1140.81Z" fill="#DA2063"/>
						<path d="M1217.71 218.022C1207.03 218.022 1198.88 215.022 1193.27 209.021C1187.65 202.887 1184.85 194.152 1184.85 182.817V76.0003H1206.89V184.417C1206.89 189.218 1207.83 192.685 1209.7 194.819C1211.7 196.952 1214.51 198.019 1218.12 198.019C1221.72 198.019 1224.46 196.952 1226.33 194.819C1228.34 192.685 1229.34 189.218 1229.34 184.417V76.0003H1250.58V182.817C1250.58 194.152 1247.77 202.887 1242.16 209.021C1236.55 215.022 1228.4 218.022 1217.71 218.022Z" fill="#DA2063"/>
						<path d="M1266.28 76.0003H1288.32V196.019H1324.6V216.022H1266.28V76.0003Z" fill="#DA2063"/>
						<path d="M1335.17 76.0003H1357.21V216.022H1335.17V76.0003Z" fill="#DA2063"/>
						<path d="M1373.72 76.0003H1401.38L1422.82 159.813H1423.22V76.0003H1442.86V216.022H1420.21L1393.76 113.806H1393.36V216.022H1373.72V76.0003Z" fill="#DA2063"/>
						<path d="M1468.84 177.616H1490V187.218H1468.84V177.616Z" fill="white"/>
						<path d="M532.344 332C527.214 332 523.302 330.56 520.609 327.679C517.916 324.735 516.569 320.542 516.569 315.101V263.829H527.15V315.869C527.15 318.174 527.599 319.838 528.497 320.862C529.459 321.886 530.805 322.398 532.537 322.398C534.268 322.398 535.583 321.886 536.481 320.862C537.443 319.838 537.923 318.174 537.923 315.869V263.829H548.12V315.101C548.12 320.542 546.773 324.735 544.08 327.679C541.386 330.56 537.475 332 532.344 332Z" fill="white"/>
						<path d="M564.893 296.667L553.253 263.829H564.412L571.53 285.529H571.722L579.033 263.829H589.037L577.398 296.667L589.614 331.04H578.456L570.76 307.612H570.568L562.68 331.04H552.676L564.893 296.667Z" fill="white"/>
						<path d="M619.05 263.829H628.188L601.639 331.04H592.501L619.05 263.829Z" fill="white"/>
						<path d="M648.357 332C643.227 332 639.315 330.56 636.622 327.679C633.928 324.735 632.582 320.542 632.582 315.101V263.829H643.163V315.869C643.163 318.174 643.612 319.838 644.51 320.862C645.471 321.886 646.818 322.398 648.55 322.398C650.281 322.398 651.596 321.886 652.493 320.862C653.455 319.838 653.936 318.174 653.936 315.869V263.829H664.133V315.101C664.133 320.542 662.786 324.735 660.093 327.679C657.399 330.56 653.487 332 648.357 332Z" fill="white"/>
						<path d="M671.669 263.829H682.25V331.04H671.669V263.829Z" fill="white"/>
						<path d="M716.642 332C712.795 332 709.877 330.688 707.889 328.063C705.901 325.439 704.907 321.63 704.907 316.638V309.629C704.907 306.108 705.516 303.164 706.734 300.795C707.953 298.427 709.941 296.699 712.698 295.61V295.418C710.197 294.394 708.338 292.762 707.119 290.522C705.965 288.217 705.388 285.273 705.388 281.688V280.44C705.388 274.999 706.702 270.871 709.332 268.054C711.961 265.238 715.905 263.829 721.163 263.829H733.284V273.431H721.356C719.624 273.431 718.278 273.943 717.316 274.967C716.418 275.991 715.969 277.656 715.969 279.96V284.089C715.969 286.649 716.482 288.473 717.508 289.561C718.598 290.65 720.201 291.194 722.318 291.194H726.454V283.704H736.843V291.194H739.825V300.795H736.843V322.879C736.843 324.799 736.907 326.367 737.035 327.583C737.163 328.735 737.484 329.888 737.997 331.04H727.416C726.903 329.632 726.582 327.871 726.454 325.759H726.262C725.107 327.871 723.761 329.44 722.221 330.464C720.746 331.488 718.887 332 716.642 332ZM720.586 322.398C723.921 322.398 725.877 320.382 726.454 316.35V300.795H722.414C719.977 300.795 718.213 301.467 717.123 302.811C716.033 304.092 715.488 306.268 715.488 309.34V316.158C715.488 318.398 715.937 319.998 716.835 320.958C717.733 321.918 718.983 322.398 720.586 322.398Z" fill="white"/>
						<path d="M758.596 263.829H768.793L773.506 315.485H773.698L778.701 263.829H790.244L795.246 315.485H795.438L800.151 263.829H809.29L802.46 331.04H789.282L784.472 285.721H784.28L779.47 331.04H765.426L758.596 263.829Z" fill="white"/>
						<path d="M814.642 263.829H843.499V273.431H825.223V291.194H839.748V300.795H825.223V321.438H843.499V331.04H814.642V263.829Z" fill="white"/>
						<path d="M849.587 263.829H865.554C871.005 263.829 874.981 265.11 877.482 267.67C879.983 270.166 881.234 274.039 881.234 279.288V281.976C881.234 285.433 880.657 288.249 879.502 290.426C878.412 292.602 876.713 294.17 874.404 295.13V295.322C879.663 297.115 882.292 301.787 882.292 309.34V315.101C882.292 320.286 880.913 324.255 878.156 327.007C875.462 329.696 871.486 331.04 866.228 331.04H849.587V263.829ZM864.304 291.194C866.42 291.194 867.991 290.65 869.017 289.561C870.108 288.473 870.653 286.649 870.653 284.089V280.344C870.653 277.912 870.204 276.151 869.306 275.063C868.472 273.975 867.126 273.431 865.266 273.431H860.168V291.194H864.304ZM866.228 321.438C868.087 321.438 869.466 320.958 870.364 319.998C871.262 318.974 871.711 317.246 871.711 314.813V308.956C871.711 305.884 871.166 303.772 870.075 302.619C869.049 301.403 867.318 300.795 864.881 300.795H860.168V321.438H866.228Z" fill="white"/>
						<path d="M903.882 263.829H920.043C925.301 263.829 929.245 265.238 931.874 268.054C934.504 270.871 935.818 274.999 935.818 280.44V314.429C935.818 319.87 934.504 323.999 931.874 326.815C929.245 329.632 925.301 331.04 920.043 331.04H903.882V263.829ZM919.85 321.438C921.582 321.438 922.896 320.926 923.794 319.902C924.756 318.878 925.237 317.214 925.237 314.909V279.96C925.237 277.656 924.756 275.991 923.794 274.967C922.896 273.943 921.582 273.431 919.85 273.431H914.464V321.438H919.85Z" fill="white"/>
						<path d="M942.96 263.829H971.818V273.431H953.542V291.194H968.067V300.795H953.542V321.438H971.818V331.04H942.96V263.829Z" fill="white"/>
						<path d="M991.849 332C986.718 332 982.839 330.56 980.209 327.679C977.58 324.735 976.266 320.542 976.266 315.101V311.261H986.269V315.869C986.269 320.222 988.097 322.398 991.752 322.398C993.548 322.398 994.895 321.886 995.792 320.862C996.754 319.774 997.235 318.046 997.235 315.677C997.235 312.861 996.594 310.397 995.312 308.284C994.029 306.108 991.656 303.516 988.193 300.507C983.833 296.667 980.787 293.21 979.055 290.137C977.324 287.001 976.458 283.48 976.458 279.576C976.458 274.263 977.805 270.166 980.498 267.286C983.191 264.342 987.103 262.869 992.233 262.869C997.299 262.869 1001.12 264.342 1003.68 267.286C1006.31 270.166 1007.62 274.327 1007.62 279.768V282.552H997.62V279.096C997.62 276.791 997.171 275.127 996.273 274.103C995.376 273.015 994.061 272.471 992.33 272.471C988.802 272.471 987.039 274.615 987.039 278.904C987.039 281.336 987.68 283.608 988.963 285.721C990.31 287.833 992.714 290.394 996.177 293.402C1000.6 297.243 1003.65 300.731 1005.32 303.868C1006.98 307.004 1007.82 310.685 1007.82 314.909C1007.82 320.414 1006.44 324.639 1003.68 327.583C1000.99 330.528 997.043 332 991.849 332Z" fill="white"/>
						<path d="M1013.88 263.829H1024.46V331.04H1013.88V263.829Z" fill="white"/>
						<path d="M1047.4 332C1042.26 332 1038.35 330.56 1035.66 327.679C1032.97 324.735 1031.62 320.542 1031.62 315.101V279.768C1031.62 274.327 1032.97 270.166 1035.66 267.286C1038.35 264.342 1042.26 262.869 1047.4 262.869C1052.53 262.869 1056.44 264.342 1059.13 267.286C1061.82 270.166 1063.17 274.327 1063.17 279.768V285.529H1053.17V279.096C1053.17 274.679 1051.34 272.471 1047.68 272.471C1044.03 272.471 1042.2 274.679 1042.2 279.096V315.869C1042.2 320.222 1044.03 322.398 1047.68 322.398C1051.34 322.398 1053.17 320.222 1053.17 315.869V302.715H1047.88V293.114H1063.17V315.101C1063.17 320.542 1061.82 324.735 1059.13 327.679C1056.44 330.56 1052.53 332 1047.4 332Z" fill="white"/>
						<path d="M1069.96 263.829H1083.24L1093.53 304.06H1093.72V263.829H1103.15V331.04H1092.28L1079.58 281.976H1079.39V331.04H1069.96V263.829Z" fill="white"/>
						<path d="M1111.01 263.829H1139.87V273.431H1121.6V291.194H1136.12V300.795H1121.6V321.438H1139.87V331.04H1111.01V263.829Z" fill="white"/>
						<path d="M1145.96 263.829H1161.64C1167.09 263.829 1171.07 265.11 1173.57 267.67C1176.07 270.166 1177.32 274.039 1177.32 279.288V283.416C1177.32 290.394 1175.01 294.81 1170.39 296.667V296.859C1172.96 297.627 1174.75 299.195 1175.78 301.563C1176.87 303.932 1177.41 307.1 1177.41 311.069V322.879C1177.41 324.799 1177.48 326.367 1177.61 327.583C1177.73 328.735 1178.06 329.888 1178.57 331.04H1167.8C1167.41 329.952 1167.15 328.928 1167.03 327.967C1166.9 327.007 1166.83 325.279 1166.83 322.783V310.493C1166.83 307.42 1166.32 305.276 1165.29 304.06C1164.33 302.843 1162.63 302.235 1160.2 302.235H1156.54V331.04H1145.96V263.829ZM1160.39 292.634C1162.5 292.634 1164.08 292.09 1165.1 291.002C1166.19 289.913 1166.74 288.089 1166.74 285.529V280.344C1166.74 277.912 1166.29 276.151 1165.39 275.063C1164.56 273.975 1163.21 273.431 1161.35 273.431H1156.54V292.634H1160.39Z" fill="white"/>
					</g>
				</g>
			</g>
		</g>
		<path d="M1680 649H0V651H1680V649Z" fill="white" mask="url(#path-1-inside-1_2229_11041)"/>
	</g>
	<defs>
		<filter id="filter0_f_2229_11041" x="304.695" y="-6" width="1218.16" height="304.022" filterUnits="userSpaceOnUse" color-interpolation-filters="sRGB">
			<feFlood flood-opacity="0" result="BackgroundImageFix"/>
			<feBlend mode="normal" in="SourceGraphic" in2="BackgroundImageFix" result="shape"/>
			<feGaussianBlur stdDeviation="40" result="effect1_foregroundBlur_2229_11041"/>
		</filter>
		<clipPath id="clip0_2229_11041">
			<path d="M0 0H1680V650H0V0Z" fill="white"/>
		</clipPath>
	</defs>
</svg>
