<svg width="36" height="36" viewBox="0 0 36 36" fill="none" xmlns="http://www.w3.org/2000/svg">
<mask id="path-1-inside-1_1976_7351" fill="white">
<path d="M0 18C9.94113 18 18 9.94113 18 0C18 9.94113 26.0589 18 36 18C26.0589 18 18 26.0589 18 36C18 26.0589 9.94113 18 0 18Z"/>
</mask>
<path d="M17.5 0L17.5 36H18.5L18.5 0L17.5 0ZM17 0C17 9.38884 9.38884 17 0 17L0 19C10.4934 19 19 10.4934 19 0L17 0ZM36 17C26.6112 17 19 9.38884 19 0L17 0C17 10.4934 25.5066 19 36 19V17ZM19 36C19 26.6112 26.6112 19 36 19V17C25.5066 17 17 25.5066 17 36H19ZM0 19C9.38884 19 17 26.6112 17 36H19C19 25.5066 10.4934 17 0 17L0 19Z" fill="white" mask="url(#path-1-inside-1_1976_7351)"/>
<path d="M0 18C9.94113 18 18 9.94113 18 0L18 36C18 26.0589 9.94113 18 0 18Z" fill="white"/>
</svg>
