<svg width="48" height="48" viewBox="0 0 48 48" fill="none" xmlns="http://www.w3.org/2000/svg">
<mask id="path-1-inside-1_2213_9815" fill="white">
<path d="M0 24C13.2548 24 24 13.2548 24 0C24 13.2548 34.7452 24 48 24C34.7452 24 24 34.7452 24 48C24 34.7452 13.2548 24 0 24Z"/>
</mask>
<path d="M23 0C23 12.7026 12.7026 23 0 23L0 25C13.8071 25 25 13.8071 25 0L23 0ZM48 23C35.2975 23 25 12.7026 25 0L23 0C23 13.8071 34.1929 25 48 25V23ZM25 48C25 35.2975 35.2975 25 48 25V23C34.1929 23 23 34.1929 23 48H25ZM0 25C12.7026 25 23 35.2975 23 48H25C25 34.1929 13.8071 23 0 23L0 25Z" fill="white" mask="url(#path-1-inside-1_2213_9815)"/>
</svg>
