<svg width="1680" height="647" viewBox="0 0 1680 647" fill="none" xmlns="http://www.w3.org/2000/svg">
<path opacity="0.9" fill-rule="evenodd" clip-rule="evenodd" d="M0 478.223H1.08403V646.999H0V478.223ZM21.2521 424.73H22.3361V646.999H21.2521V424.73ZM42.5042 318.666H43.5882V646.999H42.5042V318.666ZM63.7563 641.471H64.8403V646.999H63.7563V641.471ZM85.0084 231.048H86.0924V647H85.0084V231.048ZM106.261 307.599H107.345V647H106.261V307.599ZM127.513 365.703H128.597V646.999H127.513V365.703ZM148.765 314.977H149.849V647H148.765V314.977ZM170.017 477.763H171.101V647H170.017V477.763ZM191.269 523.416H192.353V646.999H191.269V523.416ZM212.521 240.732H213.605V646.999H212.521V240.732ZM233.773 315.438H234.857V646.999H233.773V315.438ZM255.025 295.608H256.109V646.999H255.025V295.608ZM276.277 478.685H277.361V646.999H276.277V478.685ZM318.781 557.081H319.866V647H318.781V557.081ZM340.034 219.057H341.118V646.999H340.034V219.057ZM361.286 385.533H362.37V647H361.286V385.533ZM403.79 351.407H404.874V646.999H403.79V351.407ZM425.042 576.448H426.126V646.999H425.042V576.448ZM446.294 291.92H447.378V647H446.294V291.92ZM467.546 257.334H468.63V647H467.546V257.334ZM488.798 572.76H489.882V647H488.798V572.76ZM510.05 196H511.134V646.999H510.05V196ZM531.302 196H532.387V646.999H531.302V196ZM552.555 471.768H553.639V647H552.555V471.768ZM573.807 422.886H574.891V647H573.807V422.886ZM595.059 560.308H596.143V646.999H595.059V560.308ZM616.311 614.263H617.395V646.999H616.311V614.263ZM637.563 373.543H638.647V646.999H637.563V373.543ZM658.815 552.007H659.899V646.999H658.815V552.007ZM680.067 536.329H681.151V646.999H680.067V536.329ZM701.319 575.527H702.403V647H701.319V575.527ZM722.571 638.704H723.655V646.999H722.571V638.704ZM743.823 608.268H744.908V646.999H743.823V608.268ZM765.076 212.141H766.16V646.999H765.076V212.141ZM786.328 602.273H787.412V646.999H786.328V602.273ZM807.58 593.511H808.664V646.999H807.58V593.511ZM828.832 251.339H829.916V647H828.832V251.339ZM850.084 226.898H851.168V647H850.084V226.898ZM871.336 229.203H872.42V646.999H871.336V229.203ZM892.588 566.303H893.672V646.999H892.588V566.303ZM913.84 393.372H914.924V646.999H913.84V393.372ZM935.092 486.525H936.176V647H935.092V486.525ZM956.345 223.669H957.429V646.999H956.345V223.669ZM977.597 394.295H978.681V647H977.597V394.295ZM998.849 329.733H999.933V646.999H998.849V329.733ZM1020.1 272.089H1021.18V646.999H1020.1V272.089ZM1041.35 231.508H1042.44V646.999H1041.35V231.508ZM1062.6 436.72H1063.69V646.999H1062.6V436.72ZM1083.86 368.469H1084.94V646.999H1083.86V368.469ZM1105.11 598.584H1106.19V647H1105.11V598.584ZM1126.36 244.882H1127.45V646.999H1126.36V244.882ZM1147.61 457.472H1148.7V647H1147.61V457.472ZM1168.87 505.893H1169.95V646.999H1168.87V505.893ZM1190.12 321.433H1191.2V646.999H1190.12V321.433ZM1211.37 267.939H1212.45V646.999H1211.37V267.939ZM1232.62 303.909H1233.71V646.999H1232.62V303.909ZM1253.87 454.244H1254.96V646.999H1253.87V454.244ZM1275.13 615.646H1276.21V646.999H1275.13V615.646ZM1296.38 390.144H1297.46V646.999H1296.38V390.144ZM1317.63 563.075H1318.71V646.999H1317.63V563.075ZM1338.88 533.1H1339.97V646.999H1338.88V533.1ZM1360.13 512.809H1361.22V646.999H1360.13V512.809ZM1381.39 224.131H1382.47V647H1381.39V224.131ZM1402.64 364.319H1403.72V646.999H1402.64V364.319ZM1423.89 603.196H1424.97V647H1423.89V603.196ZM1445.14 307.599H1446.23V647H1445.14V307.599ZM1466.39 524.338H1467.48V646.999H1466.39V524.338ZM1487.65 406.746H1488.73V646.999H1487.65V406.746ZM1508.9 553.391H1509.98V646.999H1508.9V553.391ZM1530.15 462.083H1531.24V646.999H1530.15V462.083ZM1551.4 643.776H1552.49V646.999H1551.4V643.776ZM1572.66 474.073H1573.74V646.999H1572.66V474.073ZM1593.91 479.146H1594.99V647H1593.91V479.146ZM1615.16 457.472H1616.24V647H1615.16V457.472ZM1636.41 449.632H1637.5V646.999H1636.41V449.632ZM1657.66 278.546H1658.75V647H1657.66V278.546ZM1678.92 416.891H1680V647H1678.92V416.891Z" fill="#DA2063"/>
<mask id="path-2-inside-1_2090_8373" fill="white">
<path d="M0 647H1680V407H0V647Z"/>
</mask>
<path d="M0 646H1680V648H0V646Z" fill="white" mask="url(#path-2-inside-1_2090_8373)"/>
<g opacity="0.4" filter="url(#filter0_f_2090_8373)">
<path d="M407.541 82.0003H437.401L460.246 222.022H438.202L434.194 194.218V194.618H409.144L405.136 222.022H384.695L407.541 82.0003ZM431.589 175.615L421.769 106.404H421.369L411.749 175.615H431.589Z" fill="#DA2063"/>
<path d="M470.941 82.0003H503.606C514.962 82.0003 523.245 84.6674 528.456 90.0016C533.666 95.2024 536.271 103.27 536.271 114.205V122.807C536.271 137.342 531.462 146.544 521.843 150.411V150.811C527.187 152.411 530.927 155.678 533.065 160.612C535.336 165.547 536.472 172.148 536.472 180.416V205.019C536.472 209.02 536.605 212.287 536.873 214.821C537.14 217.221 537.808 219.622 538.877 222.022H516.432C515.63 219.755 515.096 217.621 514.829 215.621C514.561 213.621 514.428 210.02 514.428 204.819V179.215C514.428 172.814 513.359 168.347 511.221 165.813C509.217 163.28 505.677 162.013 500.6 162.013H492.985V222.022H470.941V82.0003ZM501.001 142.01C505.41 142.01 508.683 140.876 510.821 138.609C513.092 136.342 514.227 132.541 514.227 127.207V116.406C514.227 111.338 513.292 107.671 511.422 105.404C509.685 103.137 506.879 102.003 503.005 102.003H492.985V142.01H501.001Z" fill="#DA2063"/>
<path d="M568.609 102.003H545.563V82.0003H613.699V102.003H590.653V222.022H568.609V102.003Z" fill="#DA2063"/>
<path d="M653.03 224.022C642.342 224.022 634.259 221.022 628.781 215.021C623.304 208.887 620.565 200.152 620.565 188.817V180.816H641.406V190.417C641.406 199.485 645.214 204.019 652.829 204.019C656.57 204.019 659.376 202.952 661.246 200.819C663.25 198.552 664.252 194.951 664.252 190.017C664.252 184.149 662.916 179.015 660.244 174.615C657.572 170.081 652.629 164.68 645.414 158.412C636.33 150.411 629.984 143.21 626.376 136.809C622.769 130.274 620.966 122.94 620.966 114.805C620.966 103.737 623.771 95.2024 629.382 89.2014C634.994 83.0671 643.143 80 653.831 80C664.386 80 672.335 83.0671 677.679 89.2014C683.156 95.2024 685.895 103.87 685.895 115.205V121.006H665.054V113.805C665.054 109.004 664.118 105.537 662.248 103.404C660.378 101.137 657.639 100.003 654.032 100.003C646.684 100.003 643.01 104.47 643.01 113.405C643.01 118.473 644.346 123.207 647.018 127.607C649.823 132.008 654.833 137.342 662.048 143.61C671.266 151.611 677.612 158.879 681.086 165.413C684.559 171.948 686.296 179.615 686.296 188.417C686.296 199.885 683.424 208.687 677.679 214.821C672.068 220.955 663.851 224.022 653.03 224.022Z" fill="#DA2063"/>
<path d="M698.935 82.0003H720.979V222.022H698.935V82.0003Z" fill="#DA2063"/>
<path d="M769.352 224.022C758.531 224.022 750.248 220.955 744.503 214.821C738.758 208.687 735.886 200.019 735.886 188.817V115.205C735.886 104.004 738.758 95.3357 744.503 89.2014C750.248 83.0671 758.531 80 769.352 80C780.174 80 788.457 83.0671 794.202 89.2014C799.947 95.3357 802.819 104.004 802.819 115.205V188.817C802.819 200.019 799.947 208.687 794.202 214.821C788.457 220.955 780.174 224.022 769.352 224.022ZM769.352 204.019C776.968 204.019 780.775 199.419 780.775 190.217V113.805C780.775 104.604 776.968 100.003 769.352 100.003C761.737 100.003 757.93 104.604 757.93 113.805V190.217C757.93 199.419 761.737 204.019 769.352 204.019Z" fill="#DA2063"/>
<path d="M817.727 82.0003H849.19L863.218 182.216H863.619L877.647 82.0003H909.11V222.022H888.268V116.006H887.867L871.835 222.022H853.398L837.366 116.006H836.966V222.022H817.727V82.0003Z" fill="#DA2063"/>
<path d="M957.655 82.0003H990.12C1001.07 82.0003 1009.29 84.9341 1014.77 90.8017C1020.25 96.6693 1022.99 105.271 1022.99 116.606V130.408C1022.99 141.743 1020.25 150.344 1014.77 156.212C1009.29 162.079 1001.07 165.013 990.12 165.013H979.699V222.022H957.655V82.0003ZM990.12 145.01C993.727 145.01 996.399 144.01 998.136 142.01C1000.01 140.009 1000.94 136.609 1000.94 131.808V115.205C1000.94 110.405 1000.01 107.004 998.136 105.004C996.399 103.004 993.727 102.003 990.12 102.003H979.699V145.01H990.12Z" fill="#DA2063"/>
<path d="M1044.95 82.0003H1074.81L1097.65 222.022H1075.61L1071.6 194.218V194.618H1046.55L1042.54 222.022H1022.1L1044.95 82.0003ZM1068.99 175.615L1059.17 106.404H1058.77L1049.15 175.615H1068.99Z" fill="#DA2063"/>
<path d="M1108.35 82.0003H1140.81C1151.77 82.0003 1159.98 84.9341 1165.46 90.8017C1170.94 96.6693 1173.68 105.271 1173.68 116.606V130.408C1173.68 141.743 1170.94 150.344 1165.46 156.212C1159.98 162.079 1151.77 165.013 1140.81 165.013H1130.39V222.022H1108.35V82.0003ZM1140.81 145.01C1144.42 145.01 1147.09 144.01 1148.83 142.01C1150.7 140.009 1151.63 136.609 1151.63 131.808V115.205C1151.63 110.405 1150.7 107.004 1148.83 105.004C1147.09 103.004 1144.42 102.003 1140.81 102.003H1130.39V145.01H1140.81Z" fill="#DA2063"/>
<path d="M1217.71 224.022C1207.03 224.022 1198.88 221.022 1193.26 215.021C1187.65 208.887 1184.85 200.152 1184.85 188.817V82.0003H1206.89V190.417C1206.89 195.218 1207.83 198.685 1209.7 200.819C1211.7 202.952 1214.51 204.019 1218.11 204.019C1221.72 204.019 1224.46 202.952 1226.33 200.819C1228.33 198.685 1229.34 195.218 1229.34 190.417V82.0003H1250.58V188.817C1250.58 200.152 1247.77 208.887 1242.16 215.021C1236.55 221.022 1228.4 224.022 1217.71 224.022Z" fill="#DA2063"/>
<path d="M1266.28 82.0003H1288.32V202.019H1324.6V222.022H1266.28V82.0003Z" fill="#DA2063"/>
<path d="M1335.17 82.0003H1357.21V222.022H1335.17V82.0003Z" fill="#DA2063"/>
<path d="M1373.72 82.0003H1401.38L1422.82 165.813H1423.22V82.0003H1442.86V222.022H1420.21L1393.76 119.806H1393.36V222.022H1373.72V82.0003Z" fill="#DA2063"/>
</g>
<path d="M190 154.812H200.581V182.176H211.932V154.812H222.513V222.022H211.932V191.777H200.581V222.022H190V154.812Z" fill="white"/>
<path d="M230.393 154.812H240.974V222.022H230.393V154.812Z" fill="white"/>
<path d="M252.362 222.022H248.899V211.844H259.095V220.966L253.805 233.544H248.899L252.362 222.022Z" fill="white"/>
<path d="M282.435 154.812H293.016V222.022H282.435V154.812Z" fill="white"/>
<path d="M304.403 164.989H300.94V154.812H311.137V163.933L305.269 176.511H300.363L304.403 164.989Z" fill="white"/>
<path d="M319.07 154.812H334.172L340.906 202.915H341.098L347.832 154.812H362.934V222.022H352.93V171.134H352.737L345.042 222.022H336.192L328.497 171.134H328.305V222.022H319.07V154.812Z" fill="white"/>
<path d="M407.542 82.0003H437.402L460.247 222.022H438.203L434.195 194.218V194.618H409.145L405.137 222.022H384.697L407.542 82.0003ZM431.59 175.615L421.771 106.404H421.37L411.751 175.615H431.59Z" fill="#DA2063"/>
<path d="M470.942 82.0003H503.607C514.963 82.0003 523.247 84.6674 528.457 90.0016C533.667 95.2024 536.273 103.27 536.273 114.205V122.807C536.273 137.342 531.463 146.544 521.844 150.411V150.811C527.188 152.411 530.929 155.678 533.066 160.612C535.337 165.547 536.473 172.148 536.473 180.416V205.019C536.473 209.02 536.607 212.287 536.874 214.821C537.141 217.221 537.809 219.622 538.878 222.022H516.433C515.631 219.755 515.097 217.621 514.83 215.621C514.563 213.621 514.429 210.02 514.429 204.819V179.215C514.429 172.814 513.36 168.347 511.223 165.813C509.219 163.28 505.678 162.013 500.601 162.013H492.986V222.022H470.942V82.0003ZM501.002 142.01C505.411 142.01 508.684 140.876 510.822 138.609C513.093 136.342 514.229 132.541 514.229 127.207V116.406C514.229 111.338 513.293 107.671 511.423 105.404C509.686 103.137 506.881 102.003 503.006 102.003H492.986V142.01H501.002Z" fill="#DA2063"/>
<path d="M568.611 102.003H545.565V82.0003H613.701V102.003H590.655V222.022H568.611V102.003Z" fill="#DA2063"/>
<path d="M653.031 224.022C642.343 224.022 634.26 221.022 628.782 215.021C623.305 208.887 620.566 200.152 620.566 188.817V180.816H641.408V190.417C641.408 199.485 645.215 204.019 652.83 204.019C656.571 204.019 659.377 202.952 661.247 200.819C663.251 198.552 664.253 194.951 664.253 190.017C664.253 184.149 662.917 179.015 660.245 174.615C657.573 170.081 652.63 164.68 645.416 158.412C636.331 150.411 629.985 143.21 626.378 136.809C622.77 130.274 620.967 122.94 620.967 114.805C620.967 103.737 623.772 95.2024 629.384 89.2014C634.995 83.0671 643.144 80 653.832 80C664.387 80 672.336 83.0671 677.68 89.2014C683.158 95.2024 685.896 103.87 685.896 115.205V121.006H665.055V113.805C665.055 109.004 664.12 105.537 662.249 103.404C660.379 101.137 657.64 100.003 654.033 100.003C646.685 100.003 643.011 104.47 643.011 113.405C643.011 118.473 644.347 123.207 647.019 127.607C649.824 132.008 654.834 137.342 662.049 143.61C671.267 151.611 677.613 158.879 681.087 165.413C684.56 171.948 686.297 179.615 686.297 188.417C686.297 199.885 683.425 208.687 677.68 214.821C672.069 220.955 663.852 224.022 653.031 224.022Z" fill="#DA2063"/>
<path d="M698.936 82.0003H720.98V222.022H698.936V82.0003Z" fill="#DA2063"/>
<path d="M769.354 224.022C758.532 224.022 750.249 220.955 744.504 214.821C738.759 208.687 735.887 200.019 735.887 188.817V115.205C735.887 104.004 738.759 95.3357 744.504 89.2014C750.249 83.0671 758.532 80 769.354 80C780.175 80 788.458 83.0671 794.203 89.2014C799.948 95.3357 802.82 104.004 802.82 115.205V188.817C802.82 200.019 799.948 208.687 794.203 214.821C788.458 220.955 780.175 224.022 769.354 224.022ZM769.354 204.019C776.969 204.019 780.776 199.419 780.776 190.217V113.805C780.776 104.604 776.969 100.003 769.354 100.003C761.738 100.003 757.931 104.604 757.931 113.805V190.217C757.931 199.419 761.738 204.019 769.354 204.019Z" fill="#DA2063"/>
<path d="M817.728 82.0003H849.191L863.219 182.216H863.62L877.648 82.0003H909.111V222.022H888.269V116.006H887.868L871.836 222.022H853.4L837.368 116.006H836.967V222.022H817.728V82.0003Z" fill="#DA2063"/>
<path d="M957.656 82.0003H990.121C1001.08 82.0003 1009.29 84.9341 1014.77 90.8017C1020.25 96.6693 1022.99 105.271 1022.99 116.606V130.408C1022.99 141.743 1020.25 150.344 1014.77 156.212C1009.29 162.079 1001.08 165.013 990.121 165.013H979.7V222.022H957.656V82.0003ZM990.121 145.01C993.728 145.01 996.4 144.01 998.137 142.01C1000.01 140.009 1000.94 136.609 1000.94 131.808V115.205C1000.94 110.405 1000.01 107.004 998.137 105.004C996.4 103.004 993.728 102.003 990.121 102.003H979.7V145.01H990.121Z" fill="#DA2063"/>
<path d="M1044.95 82.0003H1074.81L1097.65 222.022H1075.61L1071.6 194.218V194.618H1046.55L1042.54 222.022H1022.1L1044.95 82.0003ZM1069 175.615L1059.18 106.404H1058.78L1049.16 175.615H1069Z" fill="#DA2063"/>
<path d="M1108.35 82.0003H1140.81C1151.77 82.0003 1159.98 84.9341 1165.46 90.8017C1170.94 96.6693 1173.68 105.271 1173.68 116.606V130.408C1173.68 141.743 1170.94 150.344 1165.46 156.212C1159.98 162.079 1151.77 165.013 1140.81 165.013H1130.39V222.022H1108.35V82.0003ZM1140.81 145.01C1144.42 145.01 1147.09 144.01 1148.83 142.01C1150.7 140.009 1151.63 136.609 1151.63 131.808V115.205C1151.63 110.405 1150.7 107.004 1148.83 105.004C1147.09 103.004 1144.42 102.003 1140.81 102.003H1130.39V145.01H1140.81Z" fill="#DA2063"/>
<path d="M1217.71 224.022C1207.03 224.022 1198.88 221.022 1193.27 215.021C1187.65 208.887 1184.85 200.152 1184.85 188.817V82.0003H1206.89V190.417C1206.89 195.218 1207.83 198.685 1209.7 200.819C1211.7 202.952 1214.51 204.019 1218.12 204.019C1221.72 204.019 1224.46 202.952 1226.33 200.819C1228.34 198.685 1229.34 195.218 1229.34 190.417V82.0003H1250.58V188.817C1250.58 200.152 1247.77 208.887 1242.16 215.021C1236.55 221.022 1228.4 224.022 1217.71 224.022Z" fill="#DA2063"/>
<path d="M1266.28 82.0003H1288.32V202.019H1324.6V222.022H1266.28V82.0003Z" fill="#DA2063"/>
<path d="M1335.17 82.0003H1357.21V222.022H1335.17V82.0003Z" fill="#DA2063"/>
<path d="M1373.72 82.0003H1401.38L1422.82 165.813H1423.22V82.0003H1442.86V222.022H1420.21L1393.76 119.806H1393.36V222.022H1373.72V82.0003Z" fill="#DA2063"/>
<path d="M1468.84 183.616H1490V193.218H1468.84V183.616Z" fill="white"/>
<path d="M532.344 338C527.214 338 523.302 336.56 520.609 333.679C517.916 330.735 516.569 326.542 516.569 321.101V269.829H527.15V321.869C527.15 324.174 527.599 325.838 528.497 326.862C529.459 327.886 530.805 328.398 532.537 328.398C534.268 328.398 535.583 327.886 536.481 326.862C537.443 325.838 537.923 324.174 537.923 321.869V269.829H548.12V321.101C548.12 326.542 546.773 330.735 544.08 333.679C541.386 336.56 537.475 338 532.344 338Z" fill="white"/>
<path d="M564.893 302.667L553.253 269.829H564.412L571.53 291.529H571.722L579.033 269.829H589.037L577.398 302.667L589.614 337.04H578.456L570.76 313.612H570.568L562.68 337.04H552.676L564.893 302.667Z" fill="white"/>
<path d="M619.05 269.829H628.188L601.639 337.04H592.501L619.05 269.829Z" fill="white"/>
<path d="M648.357 338C643.227 338 639.315 336.56 636.622 333.679C633.928 330.735 632.582 326.542 632.582 321.101V269.829H643.163V321.869C643.163 324.174 643.612 325.838 644.51 326.862C645.471 327.886 646.818 328.398 648.55 328.398C650.281 328.398 651.596 327.886 652.493 326.862C653.455 325.838 653.936 324.174 653.936 321.869V269.829H664.133V321.101C664.133 326.542 662.786 330.735 660.093 333.679C657.399 336.56 653.487 338 648.357 338Z" fill="white"/>
<path d="M671.669 269.829H682.25V337.04H671.669V269.829Z" fill="white"/>
<path d="M716.642 338C712.795 338 709.877 336.688 707.889 334.063C705.901 331.439 704.907 327.63 704.907 322.638V315.629C704.907 312.108 705.516 309.164 706.734 306.795C707.953 304.427 709.941 302.699 712.698 301.61V301.418C710.197 300.394 708.338 298.762 707.119 296.522C705.965 294.217 705.388 291.273 705.388 287.688V286.44C705.388 280.999 706.702 276.871 709.332 274.054C711.961 271.238 715.905 269.829 721.163 269.829H733.284V279.431H721.356C719.624 279.431 718.278 279.943 717.316 280.967C716.418 281.991 715.969 283.656 715.969 285.96V290.089C715.969 292.649 716.482 294.473 717.508 295.561C718.598 296.65 720.201 297.194 722.318 297.194H726.454V289.704H736.843V297.194H739.825V306.795H736.843V328.879C736.843 330.799 736.907 332.367 737.035 333.583C737.163 334.735 737.484 335.888 737.997 337.04H727.416C726.903 335.632 726.582 333.871 726.454 331.759H726.262C725.107 333.871 723.76 335.44 722.221 336.464C720.746 337.488 718.887 338 716.642 338ZM720.586 328.398C723.921 328.398 725.877 326.382 726.454 322.35V306.795H722.414C719.977 306.795 718.213 307.467 717.123 308.811C716.033 310.092 715.488 312.268 715.488 315.34V322.158C715.488 324.398 715.937 325.998 716.835 326.958C717.732 327.918 718.983 328.398 720.586 328.398Z" fill="white"/>
<path d="M758.596 269.829H768.793L773.506 321.485H773.698L778.701 269.829H790.244L795.246 321.485H795.438L800.151 269.829H809.29L802.46 337.04H789.282L784.472 291.721H784.28L779.47 337.04H765.426L758.596 269.829Z" fill="white"/>
<path d="M814.642 269.829H843.499V279.431H825.223V297.194H839.748V306.795H825.223V327.438H843.499V337.04H814.642V269.829Z" fill="white"/>
<path d="M849.587 269.829H865.554C871.005 269.829 874.981 271.11 877.482 273.67C879.983 276.166 881.234 280.039 881.234 285.288V287.976C881.234 291.433 880.657 294.249 879.502 296.426C878.412 298.602 876.713 300.17 874.404 301.13V301.322C879.663 303.115 882.292 307.787 882.292 315.34V321.101C882.292 326.286 880.913 330.255 878.156 333.007C875.462 335.696 871.486 337.04 866.228 337.04H849.587V269.829ZM864.304 297.194C866.42 297.194 867.991 296.65 869.017 295.561C870.107 294.473 870.653 292.649 870.653 290.089V286.344C870.653 283.912 870.204 282.151 869.306 281.063C868.472 279.975 867.126 279.431 865.266 279.431H860.168V297.194H864.304ZM866.228 327.438C868.087 327.438 869.466 326.958 870.364 325.998C871.262 324.974 871.711 323.246 871.711 320.813V314.956C871.711 311.884 871.166 309.772 870.075 308.619C869.049 307.403 867.318 306.795 864.881 306.795H860.168V327.438H866.228Z" fill="white"/>
<path d="M903.882 269.829H920.043C925.301 269.829 929.245 271.238 931.874 274.054C934.504 276.871 935.818 280.999 935.818 286.44V320.429C935.818 325.87 934.504 329.999 931.874 332.815C929.245 335.632 925.301 337.04 920.043 337.04H903.882V269.829ZM919.85 327.438C921.582 327.438 922.896 326.926 923.794 325.902C924.756 324.878 925.237 323.214 925.237 320.909V285.96C925.237 283.656 924.756 281.991 923.794 280.967C922.896 279.943 921.582 279.431 919.85 279.431H914.464V327.438H919.85Z" fill="white"/>
<path d="M942.96 269.829H971.818V279.431H953.542V297.194H968.067V306.795H953.542V327.438H971.818V337.04H942.96V269.829Z" fill="white"/>
<path d="M991.849 338C986.718 338 982.839 336.56 980.209 333.679C977.58 330.735 976.266 326.542 976.266 321.101V317.261H986.269V321.869C986.269 326.222 988.097 328.398 991.752 328.398C993.548 328.398 994.895 327.886 995.792 326.862C996.754 325.774 997.235 324.046 997.235 321.677C997.235 318.861 996.594 316.397 995.312 314.284C994.029 312.108 991.656 309.516 988.193 306.507C983.833 302.667 980.786 299.21 979.055 296.137C977.324 293.001 976.458 289.48 976.458 285.576C976.458 280.263 977.805 276.166 980.498 273.286C983.191 270.342 987.103 268.869 992.233 268.869C997.299 268.869 1001.12 270.342 1003.68 273.286C1006.31 276.166 1007.62 280.327 1007.62 285.768V288.552H997.62V285.096C997.62 282.791 997.171 281.127 996.273 280.103C995.376 279.015 994.061 278.471 992.33 278.471C988.802 278.471 987.039 280.615 987.039 284.904C987.039 287.336 987.68 289.608 988.963 291.721C990.31 293.833 992.714 296.394 996.177 299.402C1000.6 303.243 1003.65 306.731 1005.32 309.868C1006.98 313.004 1007.82 316.685 1007.82 320.909C1007.82 326.414 1006.44 330.639 1003.68 333.583C1000.99 336.528 997.043 338 991.849 338Z" fill="white"/>
<path d="M1013.88 269.829H1024.46V337.04H1013.88V269.829Z" fill="white"/>
<path d="M1047.4 338C1042.26 338 1038.35 336.56 1035.66 333.679C1032.97 330.735 1031.62 326.542 1031.62 321.101V285.768C1031.62 280.327 1032.97 276.166 1035.66 273.286C1038.35 270.342 1042.26 268.869 1047.4 268.869C1052.53 268.869 1056.44 270.342 1059.13 273.286C1061.82 276.166 1063.17 280.327 1063.17 285.768V291.529H1053.17V285.096C1053.17 280.679 1051.34 278.471 1047.68 278.471C1044.03 278.471 1042.2 280.679 1042.2 285.096V321.869C1042.2 326.222 1044.03 328.398 1047.68 328.398C1051.34 328.398 1053.17 326.222 1053.17 321.869V308.715H1047.88V299.114H1063.17V321.101C1063.17 326.542 1061.82 330.735 1059.13 333.679C1056.44 336.56 1052.53 338 1047.4 338Z" fill="white"/>
<path d="M1069.96 269.829H1083.24L1093.53 310.06H1093.72V269.829H1103.15V337.04H1092.28L1079.58 287.976H1079.39V337.04H1069.96V269.829Z" fill="white"/>
<path d="M1111.01 269.829H1139.87V279.431H1121.6V297.194H1136.12V306.795H1121.6V327.438H1139.87V337.04H1111.01V269.829Z" fill="white"/>
<path d="M1145.96 269.829H1161.64C1167.09 269.829 1171.07 271.11 1173.57 273.67C1176.07 276.166 1177.32 280.039 1177.32 285.288V289.416C1177.32 296.394 1175.01 300.81 1170.39 302.667V302.859C1172.96 303.627 1174.75 305.195 1175.78 307.563C1176.87 309.932 1177.41 313.1 1177.41 317.069V328.879C1177.41 330.799 1177.48 332.367 1177.61 333.583C1177.73 334.735 1178.06 335.888 1178.57 337.04H1167.8C1167.41 335.952 1167.15 334.928 1167.03 333.967C1166.9 333.007 1166.83 331.279 1166.83 328.783V316.493C1166.83 313.42 1166.32 311.276 1165.29 310.06C1164.33 308.843 1162.63 308.235 1160.2 308.235H1156.54V337.04H1145.96V269.829ZM1160.39 298.634C1162.5 298.634 1164.08 298.09 1165.1 297.002C1166.19 295.913 1166.74 294.089 1166.74 291.529V286.344C1166.74 283.912 1166.29 282.151 1165.39 281.063C1164.56 279.975 1163.21 279.431 1161.35 279.431H1156.54V298.634H1160.39Z" fill="white"/>
<defs>
<filter id="filter0_f_2090_8373" x="304.695" y="0" width="1218.16" height="304.022" filterUnits="userSpaceOnUse" color-interpolation-filters="sRGB">
<feFlood flood-opacity="0" result="BackgroundImageFix"/>
<feBlend mode="normal" in="SourceGraphic" in2="BackgroundImageFix" result="shape"/>
<feGaussianBlur stdDeviation="40" result="effect1_foregroundBlur_2090_8373"/>
</filter>
</defs>
</svg>
