<svg width="619" height="619" viewBox="0 0 619 619" fill="none" xmlns="http://www.w3.org/2000/svg">
<path d="M17.8146 309.291C174.739 300.426 300.427 174.739 309.292 17.8141C318.157 174.739 443.845 300.426 600.769 309.291C443.845 318.157 318.157 443.844 309.292 600.769C300.427 443.844 174.739 318.157 17.8146 309.291Z" stroke="#DA2063"/>
<path d="M55.7435 309.291C191.999 301.053 301.052 192 309.29 55.7445C317.528 192 426.581 301.053 562.837 309.291C426.581 317.529 317.528 426.582 309.29 562.838C301.052 426.582 191.999 317.529 55.7435 309.291Z" stroke="#DA2063"/>
<path d="M95.5261 309.291C210.128 301.763 301.763 210.128 309.291 95.5261C316.819 210.128 408.455 301.763 523.056 309.291C408.455 316.819 316.819 408.455 309.291 523.056C301.763 408.455 210.128 316.819 95.5261 309.291Z" stroke="#DA2063"/>
<path d="M130.356 309.291C226.025 302.441 302.443 226.024 309.293 130.355C316.142 226.024 392.56 302.441 488.229 309.291C392.56 316.141 316.142 392.558 309.293 488.227C302.443 392.558 226.025 316.141 130.356 309.291Z" stroke="#DA2063"/>
<path d="M166.985 309.292C242.777 303.23 303.232 242.776 309.293 166.984C315.354 242.776 375.809 303.23 451.601 309.292C375.809 315.353 315.354 375.807 309.293 451.599C303.232 375.807 242.777 315.353 166.985 309.292Z" stroke="#DA2063"/>
<path d="M196.725 309.292C256.411 303.95 303.948 256.413 309.29 196.727C314.633 256.413 362.169 303.95 421.856 309.292C362.169 314.635 314.633 362.171 309.29 421.858C303.948 362.171 256.411 314.635 196.725 309.292Z" stroke="#DA2063"/>
<path d="M222.488 309.292C268.262 304.652 304.654 268.261 309.293 222.486C313.933 268.261 350.324 304.652 396.099 309.292C350.324 313.931 313.933 350.323 309.293 396.097C304.654 350.323 268.262 313.931 222.488 309.292Z" stroke="#DA2063"/>
<path d="M414.712 522.034C439.873 490.778 439.873 445.968 414.712 414.712C445.968 439.872 490.779 439.872 522.035 414.712C496.875 445.968 496.875 490.778 522.035 522.034C490.779 496.874 445.968 496.874 414.712 522.034Z" stroke="#DA2063"/>
<path d="M429.748 537.069C454.908 505.813 454.908 461.003 429.748 429.747C461.004 454.907 505.814 454.907 537.07 429.747C511.91 461.003 511.91 505.813 537.07 537.069C505.814 511.909 461.004 511.909 429.748 537.069Z" stroke="#DA2063"/>
<path d="M444.783 552.105C469.943 520.849 469.943 476.039 444.783 444.783C476.039 469.943 520.849 469.943 552.105 444.783C526.945 476.039 526.945 520.849 552.105 552.105C520.849 526.945 476.039 526.945 444.783 552.105Z" stroke="#DA2063"/>
<path d="M459.818 567.14C484.978 535.884 484.978 491.074 459.818 459.818C491.074 484.978 535.884 484.978 567.14 459.818C541.98 491.074 541.98 535.884 567.14 567.14C535.884 541.98 491.074 541.98 459.818 567.14Z" stroke="#DA2063"/>
<path d="M474.853 582.175C500.013 550.919 500.013 506.109 474.853 474.853C506.109 500.013 550.92 500.013 582.176 474.853C557.015 506.109 557.015 550.919 582.176 582.175C550.92 557.015 506.109 557.015 474.853 582.175Z" stroke="#DA2063"/>
<path d="M489.888 597.211C515.049 565.955 515.049 521.144 489.888 489.888C521.144 515.048 565.955 515.048 597.211 489.888C572.05 521.144 572.05 565.955 597.211 597.211C565.955 572.05 521.144 572.05 489.888 597.211Z" stroke="#DA2063"/>
<path d="M504.923 612.246C530.084 580.99 530.084 536.18 504.923 504.924C536.179 530.084 580.99 530.084 612.246 504.924C587.085 536.18 587.085 580.99 612.246 612.246C580.99 587.086 536.179 587.086 504.923 612.246Z" stroke="#DA2063"/>
<path d="M21.7905 522.034C46.9509 490.778 46.9509 445.968 21.7905 414.712C53.0466 439.872 97.857 439.872 129.113 414.712C103.953 445.968 103.953 490.778 129.113 522.034C97.857 496.874 53.0466 496.874 21.7905 522.034Z" stroke="#DA2063"/>
<path d="M36.8257 537.069C61.9861 505.813 61.9861 461.003 36.8257 429.747C68.0817 454.907 112.892 454.907 144.148 429.747C118.988 461.003 118.988 505.813 144.148 537.069C112.892 511.909 68.0817 511.909 36.8257 537.069Z" stroke="#DA2063"/>
<path d="M51.8608 552.105C77.0213 520.849 77.0213 476.039 51.8608 444.783C83.1169 469.943 127.927 469.943 159.183 444.783C134.023 476.039 134.023 520.849 159.183 552.105C127.927 526.945 83.1169 526.945 51.8608 552.105Z" stroke="#DA2063"/>
<path d="M66.896 567.14C92.0564 535.884 92.0564 491.074 66.896 459.818C98.152 484.978 142.962 484.978 174.219 459.818C149.058 491.074 149.058 535.884 174.219 567.14C142.962 541.98 98.152 541.98 66.896 567.14Z" stroke="#DA2063"/>
<path d="M81.9311 582.175C107.092 550.919 107.092 506.109 81.9311 474.853C113.187 500.013 157.998 500.013 189.254 474.853C164.093 506.109 164.093 550.919 189.254 582.175C157.998 557.015 113.187 557.015 81.9311 582.175Z" stroke="#DA2063"/>
<path d="M96.9663 597.211C122.127 565.955 122.127 521.144 96.9663 489.888C128.222 515.048 173.033 515.048 204.289 489.888C179.128 521.144 179.128 565.955 204.289 597.211C173.033 572.05 128.222 572.05 96.9663 597.211Z" stroke="#DA2063"/>
<path d="M112.001 612.246C137.162 580.99 137.162 536.18 112.001 504.924C143.258 530.084 188.068 530.084 219.324 504.924C194.164 536.18 194.164 580.99 219.324 612.246C188.068 587.086 143.258 587.086 112.001 612.246Z" stroke="#DA2063"/>
<path d="M612.245 96.9661C587.084 128.222 587.084 173.033 612.245 204.289C580.989 179.128 536.178 179.128 504.922 204.289C530.083 173.033 530.083 128.222 504.922 96.9661C536.178 122.127 580.989 122.127 612.245 96.9661Z" stroke="#DA2063"/>
<path d="M597.21 81.9305C572.049 113.187 572.049 157.997 597.21 189.253C565.953 164.093 521.143 164.093 489.887 189.253C515.047 157.997 515.047 113.187 489.887 81.9305C521.143 107.091 565.953 107.091 597.21 81.9305Z" stroke="#DA2063"/>
<path d="M582.174 66.8953C557.014 98.1514 557.014 142.962 582.174 174.218C550.918 149.057 506.108 149.057 474.852 174.218C500.012 142.962 500.012 98.1514 474.852 66.8953C506.108 92.0558 550.918 92.0558 582.174 66.8953Z" stroke="#DA2063"/>
<path d="M567.139 51.8602C541.979 83.1163 541.979 127.927 567.139 159.183C535.883 134.022 491.073 134.022 459.817 159.183C484.977 127.927 484.977 83.1163 459.817 51.8602C491.073 77.0206 535.883 77.0206 567.139 51.8602Z" stroke="#DA2063"/>
<path d="M552.104 36.825C526.944 68.0811 526.944 112.892 552.104 144.148C520.848 118.987 476.038 118.987 444.781 144.148C469.942 112.892 469.942 68.0811 444.781 36.825C476.038 61.9855 520.848 61.9855 552.104 36.825Z" stroke="#DA2063"/>
<path d="M537.069 21.7899C511.908 53.0459 511.908 97.8564 537.069 129.112C505.813 103.952 461.002 103.952 429.746 129.112C454.907 97.8564 454.907 53.0459 429.746 21.7899C461.002 46.9503 505.813 46.9503 537.069 21.7899Z" stroke="#DA2063"/>
<path d="M522.034 6.75423C496.873 38.0103 496.873 82.8207 522.034 114.077C490.778 88.9164 445.967 88.9164 414.711 114.077C439.872 82.8207 439.872 38.0103 414.711 6.75422C445.967 31.9147 490.778 31.9147 522.034 6.75423Z" stroke="#DA2063"/>
<path d="M204.311 96.9686C179.151 128.225 179.151 173.035 204.311 204.291C173.055 179.131 128.245 179.131 96.9885 204.291C122.149 173.035 122.149 128.225 96.9885 96.9686C128.245 122.129 173.055 122.129 204.311 96.9686Z" stroke="#DA2063"/>
<path d="M189.276 81.9334C164.115 113.19 164.115 158 189.276 189.256C158.02 164.096 113.209 164.096 81.9533 189.256C107.114 158 107.114 113.19 81.9533 81.9335C113.209 107.094 158.02 107.094 189.276 81.9334Z" stroke="#DA2063"/>
<path d="M174.241 66.8978C149.08 98.1539 149.08 142.964 174.241 174.22C142.985 149.06 98.1743 149.06 66.9182 174.22C92.0786 142.964 92.0786 98.1539 66.9182 66.8978C98.1742 92.0583 142.985 92.0583 174.241 66.8978Z" stroke="#DA2063"/>
<path d="M159.206 51.8626C134.045 83.1187 134.045 127.929 159.206 159.185C127.95 134.025 83.1391 134.025 51.883 159.185C77.0435 127.929 77.0435 83.1187 51.883 51.8626C83.1391 77.0231 127.95 77.0231 159.206 51.8626Z" stroke="#DA2063"/>
<path d="M144.17 36.8275C119.01 68.0836 119.01 112.894 144.17 144.15C112.914 118.99 68.1039 118.99 36.8479 144.15C62.0083 112.894 62.0083 68.0836 36.8479 36.8275C68.1039 61.9879 112.914 61.9879 144.17 36.8275Z" stroke="#DA2063"/>
<path d="M129.135 21.7923C103.975 53.0484 103.975 97.8588 129.135 129.115C97.8792 103.954 53.0688 103.954 21.8127 129.115C46.9732 97.8588 46.9732 53.0484 21.8127 21.7923C53.0688 46.9528 97.8792 46.9528 129.135 21.7923Z" stroke="#DA2063"/>
<path d="M114.1 6.75668C88.9397 38.0128 88.9397 82.8232 114.1 114.079C82.8441 88.9188 38.0336 88.9188 6.77755 114.079C31.938 82.8232 31.938 38.0128 6.77754 6.75669C38.0336 31.9171 82.8441 31.9171 114.1 6.75668Z" stroke="#DA2063"/>
</svg>
