<svg width="619" height="619" viewBox="0 0 619 619" fill="none" xmlns="http://www.w3.org/2000/svg">
<path d="M17.8146 309.291C174.739 300.426 300.427 174.739 309.292 17.8141C318.157 174.739 443.845 300.426 600.769 309.291C443.845 318.157 318.157 443.844 309.292 600.769C300.427 443.844 174.739 318.157 17.8146 309.291Z" stroke="white"/>
<path d="M55.7435 309.291C191.999 301.053 301.052 192 309.29 55.7445C317.528 192 426.581 301.053 562.837 309.291C426.581 317.529 317.528 426.582 309.29 562.838C301.052 426.582 191.999 317.529 55.7435 309.291Z" stroke="white"/>
<path d="M95.5261 309.291C210.128 301.763 301.763 210.128 309.291 95.5261C316.819 210.128 408.455 301.763 523.056 309.291C408.455 316.819 316.819 408.455 309.291 523.056C301.763 408.455 210.128 316.819 95.5261 309.291Z" stroke="white"/>
<path d="M130.356 309.291C226.025 302.441 302.443 226.024 309.293 130.355C316.142 226.024 392.56 302.441 488.229 309.291C392.56 316.141 316.142 392.558 309.293 488.227C302.443 392.558 226.025 316.141 130.356 309.291Z" stroke="white"/>
<path d="M166.985 309.292C242.777 303.23 303.232 242.776 309.293 166.984C315.354 242.776 375.809 303.23 451.601 309.292C375.809 315.353 315.354 375.807 309.293 451.599C303.232 375.807 242.777 315.353 166.985 309.292Z" stroke="white"/>
<path d="M196.725 309.292C256.411 303.95 303.948 256.413 309.29 196.727C314.633 256.413 362.169 303.95 421.856 309.292C362.169 314.635 314.633 362.171 309.29 421.858C303.948 362.171 256.411 314.635 196.725 309.292Z" stroke="white"/>
<path d="M222.488 309.292C268.262 304.652 304.654 268.261 309.293 222.486C313.933 268.261 350.324 304.652 396.099 309.292C350.324 313.931 313.933 350.323 309.293 396.097C304.654 350.323 268.262 313.931 222.488 309.292Z" stroke="white"/>
<path d="M444.783 552.105C469.943 520.849 469.943 476.039 444.783 444.783C476.039 469.943 520.849 469.943 552.105 444.783C526.945 476.039 526.945 520.849 552.105 552.105C520.849 526.945 476.039 526.945 444.783 552.105Z" stroke="white"/>
<path d="M459.818 567.141C484.978 535.885 484.978 491.074 459.818 459.818C491.074 484.979 535.884 484.979 567.14 459.818C541.98 491.074 541.98 535.885 567.14 567.141C535.884 541.98 491.074 541.98 459.818 567.141Z" stroke="white"/>
<path d="M474.853 582.176C500.013 550.92 500.013 506.109 474.853 474.853C506.109 500.014 550.92 500.014 582.176 474.853C557.015 506.109 557.015 550.92 582.176 582.176C550.92 557.015 506.109 557.015 474.853 582.176Z" stroke="white"/>
<path d="M51.8608 552.105C77.0213 520.849 77.0213 476.039 51.8608 444.783C83.1169 469.943 127.927 469.943 159.183 444.783C134.023 476.039 134.023 520.849 159.183 552.105C127.927 526.945 83.1169 526.945 51.8608 552.105Z" stroke="white"/>
<path d="M66.896 567.141C92.0564 535.885 92.0564 491.074 66.896 459.818C98.152 484.979 142.962 484.979 174.219 459.818C149.058 491.074 149.058 535.885 174.219 567.141C142.962 541.98 98.152 541.98 66.896 567.141Z" stroke="white"/>
<path d="M81.9311 582.176C107.092 550.92 107.092 506.109 81.9311 474.853C113.187 500.014 157.998 500.014 189.254 474.853C164.093 506.109 164.093 550.92 189.254 582.176C157.998 557.015 113.187 557.015 81.9311 582.176Z" stroke="white"/>
<path d="M582.174 66.8958C557.014 98.1519 557.014 142.962 582.174 174.218C550.918 149.058 506.108 149.058 474.852 174.218C500.012 142.962 500.012 98.1519 474.852 66.8958C506.108 92.0563 550.918 92.0563 582.174 66.8958Z" stroke="white"/>
<path d="M567.139 51.8602C541.979 83.1163 541.979 127.927 567.139 159.183C535.883 134.022 491.073 134.022 459.817 159.183C484.977 127.927 484.977 83.1163 459.817 51.8602C491.073 77.0206 535.883 77.0206 567.139 51.8602Z" stroke="white"/>
<path d="M552.104 36.825C526.944 68.0811 526.944 112.892 552.104 144.148C520.848 118.987 476.038 118.987 444.781 144.148C469.942 112.892 469.942 68.0811 444.781 36.825C476.038 61.9855 520.848 61.9855 552.104 36.825Z" stroke="white"/>
<path d="M174.241 66.8983C149.08 98.1544 149.08 142.965 174.241 174.221C142.985 149.06 98.1743 149.06 66.9182 174.221C92.0786 142.965 92.0786 98.1544 66.9182 66.8983C98.1742 92.0587 142.985 92.0587 174.241 66.8983Z" stroke="white"/>
<path d="M159.206 51.8631C134.045 83.1192 134.045 127.93 159.206 159.186C127.95 134.025 83.1391 134.025 51.883 159.186C77.0435 127.93 77.0435 83.1192 51.883 51.8631C83.1391 77.0236 127.95 77.0236 159.206 51.8631Z" stroke="white"/>
<path d="M144.17 36.828C119.01 68.084 119.01 112.894 144.17 144.151C112.914 118.99 68.1039 118.99 36.8479 144.151C62.0083 112.894 62.0083 68.0841 36.8479 36.828C68.1039 61.9884 112.914 61.9884 144.17 36.828Z" stroke="white"/>
</svg>
