<svg width="879" height="593" viewBox="0 0 879 593" fill="none" xmlns="http://www.w3.org/2000/svg">
<path d="M56.5 324C56.5 321.607 58.0355 319.174 61.1917 316.737C64.3382 314.308 69.01 311.943 75.0747 309.677C87.1984 305.148 104.77 301.06 126.519 297.624C170.008 290.752 230.106 286.5 296.5 286.5C362.894 286.5 422.992 290.752 466.481 297.624C488.23 301.06 505.802 305.148 517.925 309.677C523.99 311.943 528.662 314.308 531.808 316.737C534.964 319.174 536.5 321.607 536.5 324C536.5 326.393 534.964 328.826 531.808 331.263C528.662 333.692 523.99 336.057 517.925 338.323C505.802 342.852 488.23 346.94 466.481 350.376C422.992 357.248 362.894 361.5 296.5 361.5C230.106 361.5 170.008 357.248 126.519 350.376C104.77 346.94 87.1984 342.852 75.0746 338.323C69.01 336.057 64.3382 333.692 61.1917 331.263C58.0355 328.826 56.5 326.393 56.5 324Z" stroke="#DA2063"/>
<path d="M57.5 258.5C57.5 255.771 59.0568 253.032 62.1934 250.312C65.3269 247.595 69.9778 244.951 76.0145 242.418C88.084 237.354 105.579 232.783 127.235 228.94C170.54 221.256 230.384 216.5 296.5 216.5C362.616 216.5 422.46 221.256 465.765 228.94C487.421 232.783 504.916 237.355 516.985 242.418C523.022 244.951 527.673 247.595 530.807 250.313C533.943 253.033 535.5 255.771 535.5 258.5C535.5 261.229 533.943 263.967 530.807 266.687C527.673 269.405 523.022 272.049 516.985 274.582C504.916 279.646 487.421 284.217 465.765 288.06C422.46 295.744 362.616 300.5 296.5 300.5C230.384 300.5 170.54 295.744 127.235 288.06C105.579 284.217 88.084 279.645 76.0145 274.582C69.9778 272.049 65.3269 269.405 62.1934 266.687C59.0568 263.967 57.5 261.229 57.5 258.5Z" stroke="#DA2063"/>
<path d="M76.5 391C76.5 388.218 77.9435 385.442 80.8247 382.696C83.7062 379.95 87.9834 377.277 93.5373 374.717C104.642 369.596 120.743 364.973 140.679 361.085C180.541 353.312 235.633 348.5 296.5 348.5C357.367 348.5 412.459 353.312 452.321 361.085C472.257 364.973 488.358 369.596 499.463 374.717C505.017 377.277 509.294 379.95 512.175 382.696C515.057 385.442 516.5 388.218 516.5 391C516.5 393.782 515.057 396.558 512.175 399.304C509.294 402.05 505.017 404.723 499.463 407.283C488.358 412.404 472.257 417.027 452.321 420.915C412.459 428.688 357.367 433.5 296.5 433.5C235.633 433.5 180.541 428.688 140.679 420.915C120.743 417.027 104.642 412.404 93.5373 407.283C87.9834 404.723 83.7062 402.05 80.8247 399.304C77.9435 396.558 76.5 393.782 76.5 391Z" stroke="#DA2063"/>
<path d="M517.5 194C517.5 196.781 516.05 199.557 513.156 202.303C510.261 205.05 505.964 207.722 500.385 210.283C489.229 215.403 473.055 220.027 453.029 223.915C412.985 231.688 357.644 236.5 296.5 236.5C235.356 236.5 180.015 231.688 139.971 223.915C119.945 220.027 103.771 215.403 92.6151 210.283C87.0358 207.722 82.7389 205.049 79.8442 202.303C76.9496 199.557 75.5 196.781 75.5 194C75.5 191.219 76.9496 188.443 79.8442 185.697C82.739 182.95 87.0358 180.278 92.6151 177.717C103.771 172.597 119.945 167.973 139.971 164.085C180.015 156.312 235.356 151.5 296.5 151.5C357.644 151.5 412.985 156.312 453.029 164.085C473.055 167.973 489.229 172.597 500.385 177.717C505.964 180.278 510.261 182.951 513.156 185.697C516.05 188.443 517.5 191.219 517.5 194Z" stroke="#DA2063"/>
<path d="M123.5 460C123.5 457.764 124.621 455.525 126.876 453.302C129.132 451.078 132.486 448.909 136.85 446.828C145.575 442.666 158.234 438.905 173.916 435.741C205.272 429.416 248.612 425.5 296.5 425.5C344.388 425.5 387.728 429.416 419.084 435.741C434.766 438.905 447.425 442.666 456.15 446.828C460.514 448.909 463.868 451.078 466.124 453.302C468.379 455.525 469.5 457.764 469.5 460C469.5 462.236 468.379 464.475 466.124 466.698C463.868 468.922 460.514 471.091 456.15 473.172C447.425 477.334 434.766 481.095 419.084 484.259C387.728 490.584 344.388 494.5 296.5 494.5C248.612 494.5 205.272 490.584 173.916 484.259C158.234 481.095 145.575 477.334 136.85 473.172C132.486 471.091 129.132 468.922 126.876 466.698C124.621 464.475 123.5 462.236 123.5 460Z" stroke="#DA2063"/>
<path d="M471.5 125C471.5 127.234 470.367 129.472 468.085 131.696C465.803 133.92 462.41 136.09 457.995 138.171C449.168 142.333 436.363 146.095 420.499 149.258C388.781 155.584 344.94 159.5 296.5 159.5C248.06 159.5 204.219 155.584 172.501 149.258C156.637 146.095 143.832 142.333 135.005 138.171C130.59 136.09 127.197 133.92 124.915 131.696C122.633 129.472 121.5 127.234 121.5 125C121.5 122.766 122.633 120.528 124.915 118.304C127.197 116.08 130.59 113.91 135.005 111.829C143.832 107.667 156.637 103.905 172.501 100.742C204.219 94.416 248.06 90.5 296.5 90.5C344.94 90.5 388.781 94.4161 420.499 100.742C436.363 103.905 449.168 107.667 457.995 111.829C462.41 113.91 465.803 116.08 468.085 118.304C470.367 120.528 471.5 122.766 471.5 125Z" stroke="#DA2063"/>
<path d="M199.5 67.5C199.5 67.2562 199.603 66.9753 199.882 66.6504C200.165 66.3222 200.608 65.9744 201.231 65.6155C202.476 64.8979 204.344 64.1892 206.796 63.5053C211.693 62.1398 218.803 60.9043 227.616 59.8648C245.235 57.7867 269.589 56.5 296.5 56.5C323.411 56.5 347.765 57.7867 365.384 59.8648C374.197 60.9043 381.307 62.1398 386.204 63.5053C388.656 64.1892 390.524 64.8979 391.769 65.6155C392.392 65.9744 392.835 66.3222 393.118 66.6504C393.397 66.9753 393.5 67.2562 393.5 67.5C393.5 67.7438 393.397 68.0247 393.118 68.3496C392.835 68.6778 392.392 69.0256 391.769 69.3845C390.524 70.1021 388.656 70.8108 386.204 71.4947C381.307 72.8602 374.197 74.0957 365.384 75.1352C347.765 77.2133 323.411 78.5 296.5 78.5C269.589 78.5 245.235 77.2133 227.616 75.1352C218.803 74.0957 211.693 72.8602 206.796 71.4947C204.344 70.8108 202.476 70.1021 201.231 69.3845C200.608 69.0256 200.165 68.6778 199.882 68.3496C199.603 68.0247 199.5 67.7438 199.5 67.5Z" stroke="#DA2063"/>
<path d="M54.5 296.5C54.5 294.448 56.0108 292.32 59.2065 290.163C62.3805 288.02 67.094 285.934 73.2121 283.936C85.4414 279.941 103.164 276.337 125.095 273.307C168.95 267.249 229.551 263.5 296.5 263.5C363.449 263.5 424.05 267.249 467.905 273.307C489.836 276.337 507.559 279.941 519.788 283.936C525.906 285.934 530.619 288.02 533.794 290.163C536.989 292.32 538.5 294.448 538.5 296.5C538.5 298.552 536.989 300.68 533.794 302.837C530.619 304.98 525.906 307.066 519.788 309.064C507.559 313.059 489.836 316.663 467.905 319.693C424.05 325.751 363.449 329.5 296.5 329.5C229.551 329.5 168.95 325.751 125.095 319.693C103.164 316.663 85.4414 313.059 73.2121 309.064C67.094 307.066 62.3805 304.98 59.2065 302.837C56.0108 300.68 54.5 298.552 54.5 296.5Z" stroke="#DA2063"/>
<path d="M63.5 357.5C63.5 354.692 65.0253 351.884 68.0805 349.103C71.1346 346.323 75.6672 343.617 81.5511 341.025C93.3154 335.844 110.37 331.166 131.482 327.232C173.699 319.368 232.042 314.5 296.5 314.5C360.958 314.5 419.301 319.368 461.518 327.232C482.63 331.166 499.685 335.844 511.449 341.025C517.333 343.617 521.865 346.323 524.92 349.103C527.975 351.884 529.5 354.692 529.5 357.5C529.5 360.308 527.975 363.116 524.92 365.897C521.865 368.677 517.333 371.383 511.449 373.975C499.685 379.156 482.63 383.834 461.518 387.768C419.301 395.632 360.958 400.5 296.5 400.5C232.042 400.5 173.699 395.632 131.482 387.768C110.37 383.834 93.3154 379.156 81.5511 373.975C75.6672 371.383 71.1346 368.677 68.0805 365.897C65.0253 363.116 63.5 360.308 63.5 357.5Z" stroke="#DA2063"/>
<path d="M529.5 227.5C529.5 230.308 527.975 233.116 524.919 235.897C521.865 238.678 517.333 241.383 511.449 243.975C499.685 249.156 482.63 253.834 461.518 257.768C419.301 265.632 360.958 270.5 296.5 270.5C232.042 270.5 173.699 265.632 131.482 257.768C110.37 253.834 93.3154 249.156 81.5511 243.975C75.6672 241.383 71.1345 238.677 68.0805 235.897C65.0253 233.116 63.5 230.308 63.5 227.5C63.5 224.692 65.0253 221.884 68.0805 219.103C71.1345 216.323 75.6672 213.617 81.5511 211.025C93.3154 205.844 110.37 201.166 131.482 197.232C173.699 189.368 232.042 184.5 296.5 184.5C360.958 184.5 419.301 189.368 461.518 197.232C482.63 201.166 499.685 205.844 511.449 211.025C517.333 213.617 521.865 216.323 524.919 219.103C527.975 221.884 529.5 224.692 529.5 227.5Z" stroke="#DA2063"/>
<path d="M96.5 427C96.5 424.495 97.803 421.988 100.418 419.503C103.033 417.017 106.917 414.595 111.965 412.274C122.058 407.632 136.695 403.439 154.821 399.914C191.064 392.864 241.155 388.5 296.5 388.5C351.845 388.5 401.936 392.864 438.179 399.914C456.305 403.439 470.942 407.632 481.035 412.274C486.083 414.595 489.967 417.017 492.582 419.503C495.197 421.988 496.5 424.495 496.5 427C496.5 429.505 495.197 432.012 492.582 434.497C489.967 436.983 486.083 439.405 481.035 441.726C470.942 446.368 456.305 450.561 438.179 454.086C401.936 461.136 351.845 465.5 296.5 465.5C241.155 465.5 191.064 461.136 154.821 454.086C136.695 450.561 122.058 446.368 111.965 441.726C106.917 439.405 103.033 436.983 100.418 434.497C97.803 432.012 96.5 429.505 96.5 427Z" stroke="#DA2063"/>
<path d="M497.5 158C497.5 160.504 496.191 163.011 493.563 165.497C490.934 167.983 487.03 170.404 481.957 172.726C471.813 177.368 457.103 181.561 438.887 185.086C402.462 192.136 352.121 196.5 296.5 196.5C240.879 196.5 190.538 192.136 154.113 185.086C135.897 181.56 121.187 177.368 111.043 172.726C105.97 170.404 102.066 167.983 99.4373 165.497C96.8091 163.011 95.5 160.504 95.5 158C95.5 155.496 96.8091 152.989 99.4373 150.503C102.066 148.017 105.97 145.596 111.043 143.274C121.187 138.632 135.897 134.439 154.113 130.914C190.538 123.864 240.879 119.5 296.5 119.5C352.121 119.5 402.462 123.864 438.887 130.914C457.103 134.44 471.813 138.632 481.957 143.274C487.03 145.596 490.934 148.017 493.563 150.503C496.191 152.989 497.5 155.496 497.5 158Z" stroke="#DA2063"/>
<path d="M173.5 500C173.5 498.686 174.246 497.329 175.837 495.943C177.426 494.561 179.798 493.204 182.899 491.897C189.099 489.286 198.1 486.924 209.26 484.936C231.572 480.961 262.417 478.5 296.5 478.5C330.583 478.5 361.428 480.961 383.74 484.936C394.9 486.924 403.901 489.286 410.101 491.897C413.202 493.204 415.574 494.561 417.163 495.943C418.754 497.329 419.5 498.686 419.5 500C419.5 501.314 418.754 502.671 417.163 504.057C415.574 505.439 413.202 506.796 410.101 508.103C403.901 510.714 394.9 513.076 383.74 515.064C361.428 519.039 330.583 521.5 296.5 521.5C262.417 521.5 231.572 519.039 209.26 515.064C198.1 513.076 189.099 510.714 182.899 508.103C179.798 506.796 177.426 505.439 175.837 504.057C174.246 502.671 173.5 501.314 173.5 500Z" stroke="#DA2063"/>
<path d="M428.5 89.5C428.5 91.1476 427.667 92.813 425.959 94.4831C424.249 96.1541 421.701 97.7899 418.374 99.363C411.723 102.508 402.066 105.354 390.094 107.748C366.157 112.535 333.066 115.5 296.5 115.5C259.934 115.5 226.843 112.535 202.906 107.748C190.934 105.354 181.277 102.508 174.626 99.363C171.299 97.7898 168.751 96.154 167.041 94.4831C165.333 92.8129 164.5 91.1476 164.5 89.5C164.5 87.8524 165.333 86.187 167.041 84.5169C168.751 82.8459 171.299 81.2101 174.626 79.637C181.277 76.492 190.934 73.6465 202.906 71.252C226.843 66.4646 259.934 63.5 296.5 63.5C333.066 63.5 366.157 66.4646 390.094 71.252C402.066 73.6465 411.723 76.492 418.374 79.637C421.701 81.2102 424.249 82.846 425.959 84.5169C427.667 86.1871 428.5 87.8524 428.5 89.5Z" stroke="#DA2063"/>
<path d="M296.5 537.5C184.472 537.5 93.5 427.456 93.5 291.5C93.5 155.544 184.472 45.5 296.5 45.5C408.528 45.5 499.5 155.544 499.5 291.5C499.5 427.456 408.528 537.5 296.5 537.5Z" stroke="#DA2063"/>
<path d="M296.5 537.5C162.855 537.5 54.5 427.37 54.5 291.5C54.5 155.63 162.855 45.5 296.5 45.5C430.145 45.5 538.5 155.63 538.5 291.5C538.5 427.37 430.145 537.5 296.5 537.5Z" stroke="#DA2063"/>
<path d="M296.5 537.5C254.625 537.5 216.637 510.063 189.091 465.539C161.551 421.022 144.5 359.491 144.5 291.5C144.5 223.509 161.551 161.978 189.091 117.461C216.637 72.9368 254.625 45.5 296.5 45.5C338.375 45.5 376.363 72.9368 403.909 117.461C431.449 161.978 448.5 223.509 448.5 291.5C448.5 359.491 431.449 421.022 403.909 465.539C376.363 510.063 338.375 537.5 296.5 537.5Z" stroke="#DA2063"/>
<path d="M296.5 537.5C284.063 537.5 272.153 530.711 261.26 518.299C250.368 505.888 240.536 487.899 232.268 465.628C215.736 421.089 205.5 359.526 205.5 291.5C205.5 223.474 215.736 161.911 232.268 117.372C240.536 95.1008 250.368 77.1124 261.26 64.701C272.153 52.2887 284.063 45.5 296.5 45.5C308.937 45.5 320.847 52.2887 331.74 64.701C342.632 77.1124 352.464 95.1008 360.732 117.372C377.264 161.911 387.5 223.475 387.5 291.5C387.5 359.526 377.264 421.089 360.732 465.628C352.464 487.899 342.632 505.888 331.74 518.299C320.847 530.711 308.937 537.5 296.5 537.5Z" stroke="#DA2063"/>
<path d="M296.5 537.5C294.759 537.5 292.899 536.01 290.986 532.74C289.098 529.51 287.259 524.715 285.498 518.493C281.98 506.056 278.805 488.037 276.137 465.742C270.801 421.16 267.5 359.556 267.5 291.5C267.5 223.444 270.801 161.84 276.137 117.258C278.805 94.9629 281.98 76.9435 285.498 64.5073C287.259 58.2854 289.098 53.4899 290.986 50.2604C292.899 46.9902 294.759 45.5 296.5 45.5C298.242 45.5 300.101 46.9902 302.014 50.2604C303.902 53.4899 305.741 58.2854 307.502 64.5073C311.02 76.9435 314.195 94.9629 316.863 117.258C322.199 161.84 325.5 223.444 325.5 291.5C325.5 359.556 322.199 421.16 316.863 465.742C314.195 488.037 311.02 506.056 307.502 518.493C305.741 524.715 303.902 529.51 302.014 532.74C300.101 536.01 298.241 537.5 296.5 537.5Z" stroke="#DA2063"/>
<path d="M751 59V99M771 79L731 79" stroke="#DA2063"/>
<path d="M613 499V539M633 519L593 519" stroke="#DA2063"/>
<path d="M672 254V286M688 270L656 270" stroke="#DA2063"/>
<path d="M798 415V461M821 438L775 438" stroke="#DA2063"/>
<path d="M514 0V28M528 14L500 14" stroke="#DA2063"/>
<circle cx="859" cy="194" r="19.5" stroke="#DA2063"/>
<circle cx="723" cy="581" r="11.5" stroke="#DA2063"/>
<circle cx="633" cy="90" r="8.5" stroke="#DA2063"/>
<circle cx="42" cy="79" r="10.5" stroke="#DA2063"/>
<circle cx="28" cy="553" r="27.5" stroke="#DA2063"/>
</svg>
