<svg width="48" height="48" viewBox="0 0 48 48" fill="none" xmlns="http://www.w3.org/2000/svg">
<path fill-rule="evenodd" clip-rule="evenodd" d="M25.389 32.175C24.9383 33.0391 24.2897 33.7844 23.496 34.35C22.6686 34.9251 21.7451 35.3477 20.769 35.598C19.7472 35.8691 18.6941 36.0043 17.637 36H6.003V12.009H17.31C18.453 12.009 19.494 12.111 20.442 12.309C21.381 12.507 22.185 12.843 22.86 13.302C23.526 13.761 24.051 14.37 24.426 15.129C24.792 15.879 24.978 16.827 24.978 17.943C24.978 19.152 24.705 20.154 24.153 20.961C23.601 21.768 22.794 22.422 21.705 22.938C23.187 23.361 24.273 24.111 24.996 25.17C25.728 26.238 26.085 27.522 26.085 29.022C26.094 30.249 25.86 31.299 25.392 32.172L25.389 32.175ZM18.948 21.027C19.557 20.586 19.848 19.854 19.848 18.843C19.8695 18.3667 19.7693 17.8929 19.557 17.466C19.3667 17.1184 19.0844 16.8299 18.741 16.632C18.384 16.4171 17.9887 16.2735 17.577 16.209C17.129 16.1248 16.6739 16.0836 16.218 16.086H11.277V21.693H16.62C17.559 21.702 18.336 21.477 18.945 21.027H18.948ZM17.025 25.305C18.171 25.305 19.089 25.566 19.782 26.091H19.779C20.472 26.625 20.82 27.507 20.82 28.743C20.82 29.373 20.715 29.895 20.502 30.3C20.289 30.705 19.998 31.023 19.641 31.257C19.284 31.5 18.861 31.662 18.393 31.764C17.925 31.866 17.436 31.914 16.911 31.914H11.277V25.305H17.025Z" fill="white"/>
<path fill-rule="evenodd" clip-rule="evenodd" d="M44.973 28.464H32.439C32.439 29.832 32.907 31.137 33.621 31.839C34.335 32.532 35.364 32.889 36.705 32.889C37.671 32.889 38.496 32.646 39.198 32.157C39.891 31.671 40.314 31.155 40.473 30.621H44.673C43.998 32.712 42.975 34.203 41.58 35.103C40.203 36.003 38.514 36.453 36.555 36.453C35.187 36.453 33.957 36.228 32.853 35.796C31.7949 35.3843 30.8388 34.7476 30.051 33.93C29.2756 33.0913 28.6758 32.106 28.287 31.032C27.8611 29.8447 27.6489 28.5913 27.66 27.33C27.66 26.028 27.876 24.816 28.299 23.691C28.6992 22.6095 29.3166 21.6214 30.1132 20.7876C30.9099 19.9538 31.8688 19.292 32.931 18.843C34.076 18.363 35.3076 18.124 36.549 18.141C38.022 18.141 39.306 18.423 40.41 19.002C41.508 19.575 42.408 20.343 43.119 21.309C43.83 22.275 44.328 23.373 44.646 24.609C44.955 25.827 45.057 27.111 44.973 28.461V28.464ZM34.509 22.134C35.004 21.873 35.643 21.741 36.402 21.741V21.738C37.575 21.738 38.529 22.074 39.111 22.713C39.675 23.343 40.098 24.243 40.209 25.461H32.445C32.4738 25.0731 32.5463 24.6897 32.661 24.318C32.7875 23.8695 33.005 23.4518 33.3 23.091C33.609 22.716 34.014 22.395 34.509 22.134Z" fill="white"/>
<path d="M31.464 12.627H41.187V15H31.464V12.627Z" fill="white"/>
</svg>
