<svg width="48" height="48" viewBox="0 0 48 48" fill="none" xmlns="http://www.w3.org/2000/svg">
<g clip-path="url(#clip0_1799_6163)">
<path d="M37.743 21.4517H24.285V26.8693H31.9731C31.6416 28.6205 30.6359 30.1016 29.1199 31.0939C27.8385 31.933 26.2033 32.4292 24.2812 32.4292C20.5601 32.4292 17.4125 29.9666 16.2876 26.6577C16.0045 25.8186 15.8406 24.9212 15.8406 23.9982C15.8406 23.0752 16.0045 22.1777 16.2876 21.3386C17.4163 18.0334 20.5638 15.5708 24.285 15.5708C26.3821 15.5708 28.2631 16.2786 29.7456 17.6649L33.843 13.6482C31.366 11.3863 28.1365 10 24.285 10C18.7013 10 13.8702 13.1375 11.5198 17.7123C10.5513 19.6021 10 21.7399 10 24.0018C10 26.2637 10.5513 28.3979 11.5198 30.2877C13.8702 34.8625 18.7013 38 24.285 38C28.1439 38 31.3771 36.745 33.7387 34.6072C36.4393 32.1702 38 28.5803 38 24.3156C38 23.3233 37.9106 22.3711 37.743 21.4517Z" fill="white"/>
</g>
<defs>
<clipPath id="clip0_1799_6163">
<rect width="48" height="48" fill="white"/>
</clipPath>
</defs>
</svg>
