<svg width="48" height="48" viewBox="0 0 48 48" fill="none" xmlns="http://www.w3.org/2000/svg">
<g clip-path="url(#clip0_1322_6191)">
<path d="M14.2447 15.4996C12.453 15.4999 11.0003 14.0451 11 12.2503C10.9997 10.4555 12.4518 9.00028 14.2435 8.99998C16.0352 8.99954 17.488 10.4543 17.4883 12.2491C17.4884 13.111 17.1468 13.9377 16.5385 14.5473C15.9302 15.1569 15.1051 15.4994 14.2447 15.4996Z" fill="white"/>
<path d="M17.0399 36H11.4438V17.9647H17.0398L17.0399 36Z" fill="white"/>
<path d="M37.9976 35.9998H32.4074V27.2299C32.4074 25.1386 32.3701 22.4465 29.4999 22.4465C26.5882 22.4465 26.1427 24.7251 26.1427 27.0776V35.9992H20.5526V17.9647H25.9191V20.4293H25.9943C26.5314 19.5094 27.3074 18.7526 28.2399 18.2396C29.1723 17.7266 30.2262 17.4765 31.2894 17.516C36.9554 17.516 38 21.2494 38 26.1063L37.9976 35.9998Z" fill="white"/>
</g>
<defs>
<clipPath id="clip0_1322_6191">
<rect width="48" height="48" rx="8" fill="white"/>
</clipPath>
</defs>
</svg>
