<svg width="48" height="48" viewBox="0 0 48 48" fill="none" xmlns="http://www.w3.org/2000/svg">
<path d="M24 11C21.4288 11 18.9154 11.7624 16.7776 13.1909C14.6398 14.6194 12.9735 16.6497 11.9896 19.0251C11.0056 21.4006 10.7482 24.0144 11.2498 26.5362C11.7514 29.0579 12.9895 31.3743 14.8076 33.1924C16.6257 35.0105 18.9421 36.2486 21.4638 36.7502C23.9856 37.2518 26.5994 36.9944 28.9749 36.0104C31.3503 35.0265 33.3806 33.3602 34.8091 31.2224C36.2376 29.0846 37 26.5712 37 24C36.9968 20.5532 35.6262 17.2484 33.1889 14.8111C30.7516 12.3738 27.4468 11.0032 24 11ZM34.0028 22.5556H30.1991C29.9956 19.6736 29.0457 16.8943 27.4426 14.4907C29.1624 15.1173 30.6804 16.198 31.8355 17.618C32.9905 19.0379 33.7395 20.7442 34.0028 22.5556ZM20.7019 25.4444H27.2981C27.0093 28.4176 25.8296 31.1861 24 33.2204C22.1704 31.1861 20.9907 28.4176 20.7019 25.4444ZM20.7019 22.5556C20.9907 19.5824 22.1704 16.8139 24 14.7796C25.8296 16.8139 27.0093 19.5824 27.2981 22.5556H20.7019ZM20.5574 14.4907C18.9543 16.8943 18.0044 19.6736 17.8009 22.5556H13.9972C14.2605 20.7442 15.0095 19.0379 16.1645 17.618C17.3196 16.198 18.8376 15.1173 20.5574 14.4907ZM13.9972 25.4444H17.8009C18.0044 28.3264 18.9543 31.1057 20.5574 33.5093C18.8362 32.8849 17.3168 31.8049 16.1614 30.3845C15.0061 28.9642 14.258 27.2567 13.9972 25.4444ZM27.4426 33.5093C29.0457 31.1057 29.9956 28.3264 30.1991 25.4444H34.0028C33.742 27.2567 32.9939 28.9642 31.8386 30.3845C30.6832 31.8049 29.1638 32.8849 27.4426 33.5093Z" fill="white"/>
</svg>
