<svg width="48" height="48" viewBox="0 0 48 48" fill="none" xmlns="http://www.w3.org/2000/svg">
<path fill-rule="evenodd" clip-rule="evenodd" d="M31.3914 35.4186L35.6782 13.8056L35.678 13.806C35.678 12.3671 33.6995 13.2364 33.6995 13.2364L9.62902 22.6789C9.62902 22.6789 8.48977 23.0685 8.57977 23.7879C8.66977 24.5074 9.59902 24.837 9.59902 24.837L15.6539 26.8754C15.6538 26.8752 15.6538 26.8751 15.6538 26.8751L30.1922 17.6426C30.1922 17.6426 31.0316 17.133 31.0016 17.6426C31.0016 17.6426 31.1514 17.7326 30.7016 18.1523C30.2522 18.5721 19.281 28.434 19.281 28.434L19.2592 28.6202L29.1433 36.198C30.792 36.9174 31.3914 35.4186 31.3914 35.4186Z" fill="white"/>
<path d="M23.0438 31.5216L19.1312 35.0889C19.1312 35.0889 18.8252 35.3211 18.4907 35.1756L19.24 28.5493" fill="white"/>
</svg>
