<svg width="196" height="196" viewBox="0 0 196 196" fill="none" xmlns="http://www.w3.org/2000/svg">
<mask id="mask0_1879_9816" style="mask-type:alpha" maskUnits="userSpaceOnUse" x="0" y="44" width="196" height="108">
<mask id="path-1-inside-1_1879_9816" fill="white">
<path d="M44.5456 44.4062V151.594H17.818V80.1355H0V53.3383H17.818V44.4062H44.5456ZM131.854 89.0676H159.473C155.018 64.0573 133.636 44.4062 106.909 44.4062C77.5088 44.4062 53.4544 68.5234 53.4544 98C53.4544 126.879 76.5437 150.643 105.127 151.594H196V124.797H106.909C81.5391 124.227 73.0969 96.2364 86.5922 80.4119C99.9462 64.8649 125.191 69.7934 131.924 89.2614"/>
</mask>
<path d="M44.5456 44.4062V151.594H17.818V80.1355H0V53.3383H17.818V44.4062H44.5456ZM131.854 89.0676H159.473C155.018 64.0573 133.636 44.4062 106.909 44.4062C77.5088 44.4062 53.4544 68.5234 53.4544 98C53.4544 126.879 76.5437 150.643 105.127 151.594H196V124.797H106.909C81.5391 124.227 73.0969 96.2364 86.5922 80.4119C99.9462 64.8649 125.191 69.7934 131.924 89.2614" fill="url(#paint0_linear_1879_9816)"/>
<path d="M44.5456 151.594V152.594H45.5456V151.594H44.5456ZM17.818 151.594H16.818V152.594H17.818V151.594ZM17.818 80.1355H18.818V79.1355H17.818V80.1355ZM0 80.1355H-1V81.1355H0V80.1355ZM0 53.3383V52.3383H-1V53.3383H0ZM17.818 53.3383V54.3383H18.818V53.3383H17.818ZM17.818 44.4062V43.4062H16.818V44.4062H17.818ZM159.473 89.0676V90.0676H160.667L160.457 88.8922L159.473 89.0676ZM105.127 151.594L105.094 152.593L105.111 152.594H105.127V151.594ZM196 151.594V152.594H197V151.594H196ZM196 124.797H197V123.797H196V124.797ZM106.909 124.797L106.887 125.797L106.898 125.797H106.909V124.797ZM86.5922 80.4119L85.8336 79.7603L85.8313 79.763L86.5922 80.4119ZM43.5456 44.4062V151.594H45.5456V44.4062H43.5456ZM44.5456 150.594H17.818V152.594H44.5456V150.594ZM18.818 151.594V80.1355H16.818V151.594H18.818ZM17.818 79.1355H0V81.1355H17.818V79.1355ZM1 80.1355V53.3383H-1V80.1355H1ZM0 54.3383H17.818V52.3383H0V54.3383ZM18.818 53.3383V44.4062H16.818V53.3383H18.818ZM17.818 45.4062H44.5456V43.4062H17.818V45.4062ZM131.854 90.0676H159.473V88.0676H131.854V90.0676ZM160.457 88.8922C155.923 63.437 134.153 43.4062 106.909 43.4062V45.4062C133.12 45.4062 154.113 64.6777 158.488 89.2429L160.457 88.8922ZM106.909 43.4062C76.9541 43.4062 52.4544 67.9735 52.4544 98H54.4544C54.4544 69.0732 78.0636 45.4062 106.909 45.4062V43.4062ZM52.4544 98C52.4544 127.417 75.9706 151.624 105.094 152.593L105.16 150.594C77.1168 149.661 54.4544 126.34 54.4544 98H52.4544ZM105.127 152.594H196V150.594H105.127V152.594ZM197 151.594V124.797H195V151.594H197ZM196 123.797H106.909V125.797H196V123.797ZM106.932 123.797C94.6653 123.522 86.5586 116.646 83.1055 107.956C79.6364 99.2253 80.8646 88.6691 87.3531 81.0608L85.8313 79.763C78.8245 87.9792 77.5261 99.3305 81.2468 108.694C84.9835 118.098 93.7829 125.502 106.887 125.797L106.932 123.797ZM87.3508 81.0635C100.194 66.111 124.494 70.8384 130.979 89.5882L132.869 88.9346C125.888 68.7484 99.6983 63.6188 85.8336 79.7603L87.3508 81.0635Z" fill="white" mask="url(#path-1-inside-1_1879_9816)"/>
</mask>
<g mask="url(#mask0_1879_9816)">
<rect width="196" height="196" fill="#DA2063"/>
</g>
<defs>
<linearGradient id="paint0_linear_1879_9816" x1="98" y1="44.4268" x2="98" y2="151.594" gradientUnits="userSpaceOnUse">
<stop offset="0.753716" stop-color="white" stop-opacity="0"/>
<stop offset="0.753816" stop-color="white"/>
<stop offset="1" stop-color="white"/>
</linearGradient>
</defs>
</svg>
