<svg width="196" height="196" viewBox="0 0 196 196" fill="none" xmlns="http://www.w3.org/2000/svg">
<mask id="mask0_1879_9804" style="mask-type:alpha" maskUnits="userSpaceOnUse" x="10" y="0" width="176" height="196">
<mask id="path-1-inside-1_1879_9804" fill="white">
<path d="M183.119 48.9907C181.848 46.6818 179.981 44.7531 177.713 43.4037L105.568 1.84382C103.23 0.63242 100.635 0 98 0C95.3654 0 92.7695 0.63242 90.4317 1.84382L18.2871 43.4037C16.0766 44.8196 14.2368 46.741 12.9205 49.0083C11.6042 51.2757 10.8494 53.8235 10.7188 56.4401V139.56C10.79 142.186 11.5344 144.751 12.8811 147.009C14.1525 149.318 16.0187 151.247 18.2871 152.596L90.4317 194.156C92.7695 195.368 95.3654 196 98 196C100.635 196 103.23 195.368 105.568 194.156L177.713 152.596C179.981 151.247 181.848 149.318 183.119 147.009C184.466 144.751 185.21 142.186 185.281 139.56V56.4401C185.21 53.8136 184.466 51.2491 183.119 48.9907ZM98 156.027C87.8164 155.982 77.8231 153.272 69.0187 148.168C60.2144 143.065 52.9073 135.746 47.8278 126.944C42.7482 118.142 40.0741 108.164 40.0727 98.0089C40.0712 87.8532 42.7425 77.8751 47.8195 69.0716C52.8965 60.268 60.2015 52.9475 69.0044 47.8414C77.8073 42.7353 87.7999 40.0226 97.9834 39.9743C108.167 39.926 118.185 42.5438 127.036 47.5661C135.887 52.5885 143.262 59.8395 148.423 68.5944L137.316 75.5538L133.777 77.5141L123.949 83.4933C120.81 77.69 115.807 73.1068 109.743 70.4798C103.679 67.8529 96.9056 67.3345 90.5106 69.008C84.1155 70.6815 78.47 74.4498 74.4806 79.7076C70.4912 84.9655 68.3896 91.4078 68.5131 98C68.4852 103.101 69.8439 108.114 72.4447 112.507C75.073 116.828 78.7737 120.4 83.1898 122.88C87.6058 125.359 92.5882 126.662 97.656 126.662C102.724 126.662 107.706 125.359 112.122 122.88C116.538 120.4 120.239 116.828 122.867 112.507L148.423 127.406C143.248 136.145 135.873 143.384 127.029 148.404C118.184 153.425 108.177 156.053 98 156.027ZM156.188 101.235H149.7V107.802H143.312V101.333H137.316V94.8634H143.803V88.1982H150.192V94.6674H156.679L156.188 101.235ZM180.465 101.235H173.978V107.802H167.491V101.333H161.102V94.8634H167.491V88.1982H173.978V94.6674H180.465V101.235Z"/>
</mask>
<path d="M183.119 48.9907C181.848 46.6818 179.981 44.7531 177.713 43.4037L105.568 1.84382C103.23 0.63242 100.635 0 98 0C95.3654 0 92.7695 0.63242 90.4317 1.84382L18.2871 43.4037C16.0766 44.8196 14.2368 46.741 12.9205 49.0083C11.6042 51.2757 10.8494 53.8235 10.7188 56.4401V139.56C10.79 142.186 11.5344 144.751 12.8811 147.009C14.1525 149.318 16.0187 151.247 18.2871 152.596L90.4317 194.156C92.7695 195.368 95.3654 196 98 196C100.635 196 103.23 195.368 105.568 194.156L177.713 152.596C179.981 151.247 181.848 149.318 183.119 147.009C184.466 144.751 185.21 142.186 185.281 139.56V56.4401C185.21 53.8136 184.466 51.2491 183.119 48.9907ZM98 156.027C87.8164 155.982 77.8231 153.272 69.0187 148.168C60.2144 143.065 52.9073 135.746 47.8278 126.944C42.7482 118.142 40.0741 108.164 40.0727 98.0089C40.0712 87.8532 42.7425 77.8751 47.8195 69.0716C52.8965 60.268 60.2015 52.9475 69.0044 47.8414C77.8073 42.7353 87.7999 40.0226 97.9834 39.9743C108.167 39.926 118.185 42.5438 127.036 47.5661C135.887 52.5885 143.262 59.8395 148.423 68.5944L137.316 75.5538L133.777 77.5141L123.949 83.4933C120.81 77.69 115.807 73.1068 109.743 70.4798C103.679 67.8529 96.9056 67.3345 90.5106 69.008C84.1155 70.6815 78.47 74.4498 74.4806 79.7076C70.4912 84.9655 68.3896 91.4078 68.5131 98C68.4852 103.101 69.8439 108.114 72.4447 112.507C75.073 116.828 78.7737 120.4 83.1898 122.88C87.6058 125.359 92.5882 126.662 97.656 126.662C102.724 126.662 107.706 125.359 112.122 122.88C116.538 120.4 120.239 116.828 122.867 112.507L148.423 127.406C143.248 136.145 135.873 143.384 127.029 148.404C118.184 153.425 108.177 156.053 98 156.027ZM156.188 101.235H149.7V107.802H143.312V101.333H137.316V94.8634H143.803V88.1982H150.192V94.6674H156.679L156.188 101.235ZM180.465 101.235H173.978V107.802H167.491V101.333H161.102V94.8634H167.491V88.1982H173.978V94.6674H180.465V101.235Z" fill="url(#paint0_linear_1879_9804)" stroke="white" stroke-width="2" mask="url(#path-1-inside-1_1879_9804)"/>
</mask>
<g mask="url(#mask0_1879_9804)">
<rect width="196" height="196" fill="#DA2063"/>
</g>
<defs>
<linearGradient id="paint0_linear_1879_9804" x1="98" y1="0.0375012" x2="98" y2="196" gradientUnits="userSpaceOnUse">
<stop offset="0.67038" stop-color="white" stop-opacity="0"/>
<stop offset="0.67048" stop-color="white"/>
<stop offset="1" stop-color="white"/>
</linearGradient>
</defs>
</svg>
