<svg width="196" height="196" viewBox="0 0 196 196" fill="none" xmlns="http://www.w3.org/2000/svg">
<g clip-path="url(#clip0_1879_9801)">
<mask id="mask0_1879_9801" style="mask-type:alpha" maskUnits="userSpaceOnUse" x="0" y="0" width="196" height="196">
<mask id="path-1-inside-1_1879_9801" fill="white">
<path d="M173.623 104.837H142.452V88.8836H173.623V104.837ZM173.623 113.953H142.452V129.907H173.623V113.953ZM173.623 38.7441H142.452V54.6975H173.623V38.7445V38.7441ZM173.623 63.8139H142.452V79.7672H173.623V63.8139ZM173.623 139.023H142.452V154.977H173.623V139.023V139.023ZM195.154 170.475C194.263 175.215 188.697 175.329 184.978 175.489H115.734V196H101.907L0 177.767V18.2555L102.509 0H115.734V18.1642H182.596C186.359 18.3237 190.501 18.0502 193.773 20.3519C196.067 23.7249 195.844 28.0098 196 31.884L195.911 150.533C195.8 157.165 196.512 163.934 195.154 170.475ZM81.6459 134.716C75.501 121.953 69.2447 109.281 63.1216 96.5184C69.1777 84.0976 75.1449 71.6313 81.0896 59.1646C76.0354 59.4154 70.9811 59.7343 65.9494 60.0991C62.1864 69.4659 57.8001 78.5823 54.8612 88.2684C52.1226 79.1293 48.4935 70.3319 45.1761 61.4208C40.2776 61.6944 35.3792 61.9906 30.4811 62.2868C35.6464 73.9561 41.1462 85.4647 46.1557 97.2022C40.2554 108.598 34.7337 120.153 29.0114 131.616C33.8873 131.821 38.7636 132.027 43.6395 132.095C47.1131 123.024 51.4324 114.295 54.4604 105.042C57.1769 114.979 61.7856 124.164 65.5708 133.667C70.9367 134.055 76.2804 134.397 81.6462 134.716H81.6459ZM185.381 28.9882H115.734V38.7441H133.546V54.6975H115.734V63.8139H133.546V79.7672H115.734V88.8836H133.546V104.837H115.734V113.953H133.546V129.907H115.734V139.023H133.546V154.977H115.734V165.516H185.381V28.9882Z"/>
</mask>
<path d="M173.623 104.837H142.452V88.8836H173.623V104.837ZM173.623 113.953H142.452V129.907H173.623V113.953ZM173.623 38.7441H142.452V54.6975H173.623V38.7445V38.7441ZM173.623 63.8139H142.452V79.7672H173.623V63.8139ZM173.623 139.023H142.452V154.977H173.623V139.023V139.023ZM195.154 170.475C194.263 175.215 188.697 175.329 184.978 175.489H115.734V196H101.907L0 177.767V18.2555L102.509 0H115.734V18.1642H182.596C186.359 18.3237 190.501 18.0502 193.773 20.3519C196.067 23.7249 195.844 28.0098 196 31.884L195.911 150.533C195.8 157.165 196.512 163.934 195.154 170.475ZM81.6459 134.716C75.501 121.953 69.2447 109.281 63.1216 96.5184C69.1777 84.0976 75.1449 71.6313 81.0896 59.1646C76.0354 59.4154 70.9811 59.7343 65.9494 60.0991C62.1864 69.4659 57.8001 78.5823 54.8612 88.2684C52.1226 79.1293 48.4935 70.3319 45.1761 61.4208C40.2776 61.6944 35.3792 61.9906 30.4811 62.2868C35.6464 73.9561 41.1462 85.4647 46.1557 97.2022C40.2554 108.598 34.7337 120.153 29.0114 131.616C33.8873 131.821 38.7636 132.027 43.6395 132.095C47.1131 123.024 51.4324 114.295 54.4604 105.042C57.1769 114.979 61.7856 124.164 65.5708 133.667C70.9367 134.055 76.2804 134.397 81.6462 134.716H81.6459ZM185.381 28.9882H115.734V38.7441H133.546V54.6975H115.734V63.8139H133.546V79.7672H115.734V88.8836H133.546V104.837H115.734V113.953H133.546V129.907H115.734V139.023H133.546V154.977H115.734V165.516H185.381V28.9882Z" fill="url(#paint0_linear_1879_9801)" stroke="white" stroke-width="2" mask="url(#path-1-inside-1_1879_9801)"/>
</mask>
<g mask="url(#mask0_1879_9801)">
<rect width="196" height="196" fill="#DA2063"/>
</g>
</g>
<defs>
<linearGradient id="paint0_linear_1879_9801" x1="98" y1="0.0375012" x2="98" y2="196" gradientUnits="userSpaceOnUse">
<stop offset="0.25912" stop-color="white" stop-opacity="0"/>
<stop offset="0.25912" stop-color="white"/>
<stop offset="1" stop-color="white"/>
</linearGradient>
<clipPath id="clip0_1879_9801">
<rect width="196" height="196" fill="white"/>
</clipPath>
</defs>
</svg>
