<svg width="196" height="196" viewBox="0 0 196 196" fill="none" xmlns="http://www.w3.org/2000/svg">
<mask id="mask0_1879_9833" style="mask-type:alpha" maskUnits="userSpaceOnUse" x="0" y="0" width="196" height="196">
<mask id="path-1-inside-1_1879_9833" fill="white">
<path fill-rule="evenodd" clip-rule="evenodd" d="M0 0H196V196H0V0ZM42.7708 41.0397C42.7708 40.4283 44.027 39.968 44.7553 39.968C52.4084 39.6352 60.0678 39.4794 67.7277 39.5009C92.4373 39.5009 102.039 53.4189 102.039 71.239C102.039 94.5342 85.6151 104.516 65.4959 104.516C63.6369 104.516 62.4501 104.463 61.3712 104.414C60.4724 104.374 59.6485 104.337 58.5735 104.337V139.545C58.5735 140.293 58.2928 140.616 57.5645 140.616H43.7798C43.0514 140.616 42.7708 140.328 42.7708 139.579V41.0397ZM58.5735 89.7048C60.6248 89.8491 62.2619 89.8491 65.81 89.8491C76.2137 89.8491 86.0294 86.057 86.0294 71.5688C86.0294 59.9383 79 54.0372 67.0996 54.0372C63.5849 54.0372 60.2105 54.1815 58.5735 54.3258V89.7048ZM125.847 85.4456C125.847 82.4366 128.212 78.7888 135.275 78.7888C140.981 78.7888 146.795 80.3002 150.764 82.6977C151.632 83.0206 152.087 82.5534 152.087 81.8046V69.2468C152.087 68.6354 151.946 67.8866 151.218 67.4194C148.258 66.0936 142.866 64.8776 135.208 64.8776C119.653 64.8776 110.672 74.6807 110.672 86.4898C110.672 97.0829 115.964 103.417 128.633 109.641C137.58 114.47 139.632 117.335 139.632 120.66C139.632 124.768 136.705 127.777 129.642 127.777C123.281 127.791 117.054 125.901 111.721 122.336C111.133 121.869 110.712 122.192 110.712 123.085V136.536C110.712 137.291 110.853 137.752 111.407 138.04C115.236 140.293 121.878 141.977 129.676 141.977C144.362 141.977 155.254 134.104 155.254 119.471C155.254 109.634 150.837 103.018 136.879 96.0387C127.45 91.0307 125.847 88.7705 125.847 85.4456Z"/>
</mask>
<path fill-rule="evenodd" clip-rule="evenodd" d="M0 0H196V196H0V0ZM42.7708 41.0397C42.7708 40.4283 44.027 39.968 44.7553 39.968C52.4084 39.6352 60.0678 39.4794 67.7277 39.5009C92.4373 39.5009 102.039 53.4189 102.039 71.239C102.039 94.5342 85.6151 104.516 65.4959 104.516C63.6369 104.516 62.4501 104.463 61.3712 104.414C60.4724 104.374 59.6485 104.337 58.5735 104.337V139.545C58.5735 140.293 58.2928 140.616 57.5645 140.616H43.7798C43.0514 140.616 42.7708 140.328 42.7708 139.579V41.0397ZM58.5735 89.7048C60.6248 89.8491 62.2619 89.8491 65.81 89.8491C76.2137 89.8491 86.0294 86.057 86.0294 71.5688C86.0294 59.9383 79 54.0372 67.0996 54.0372C63.5849 54.0372 60.2105 54.1815 58.5735 54.3258V89.7048ZM125.847 85.4456C125.847 82.4366 128.212 78.7888 135.275 78.7888C140.981 78.7888 146.795 80.3002 150.764 82.6977C151.632 83.0206 152.087 82.5534 152.087 81.8046V69.2468C152.087 68.6354 151.946 67.8866 151.218 67.4194C148.258 66.0936 142.866 64.8776 135.208 64.8776C119.653 64.8776 110.672 74.6807 110.672 86.4898C110.672 97.0829 115.964 103.417 128.633 109.641C137.58 114.47 139.632 117.335 139.632 120.66C139.632 124.768 136.705 127.777 129.642 127.777C123.281 127.791 117.054 125.901 111.721 122.336C111.133 121.869 110.712 122.192 110.712 123.085V136.536C110.712 137.291 110.853 137.752 111.407 138.04C115.236 140.293 121.878 141.977 129.676 141.977C144.362 141.977 155.254 134.104 155.254 119.471C155.254 109.634 150.837 103.018 136.879 96.0387C127.45 91.0307 125.847 88.7705 125.847 85.4456Z" fill="url(#paint0_linear_1879_9833)" stroke="white" stroke-width="2" mask="url(#path-1-inside-1_1879_9833)"/>
</mask>
<g mask="url(#mask0_1879_9833)">
<rect width="196" height="196" fill="#DA2063"/>
</g>
<defs>
<linearGradient id="paint0_linear_1879_9833" x1="98" y1="0.0375012" x2="98" y2="196" gradientUnits="userSpaceOnUse">
<stop offset="0.180883" stop-color="white" stop-opacity="0"/>
<stop offset="0.180983" stop-color="white"/>
<stop offset="1" stop-color="white"/>
</linearGradient>
</defs>
</svg>
