<svg width="196" height="196" viewBox="0 0 196 196" fill="none" xmlns="http://www.w3.org/2000/svg">
<mask id="mask0_1879_9836" style="mask-type:alpha" maskUnits="userSpaceOnUse" x="0" y="0" width="196" height="196">
<mask id="path-1-inside-1_1879_9836" fill="white">
<path d="M187.148 18.2328H115.727V0H102.413L0 18.2782V177.767L101.812 196H115.727V177.835H182.562C186.347 177.653 190.554 177.949 193.805 175.579C196.41 171.5 195.742 166.395 195.964 161.791V27.0754C196.432 21.8791 192.224 17.7084 187.148 18.2328V18.2328ZM74.2714 128.973C70.5535 130.955 64.9874 128.881 60.5793 129.2C57.6183 114.113 54.1672 99.1168 51.5181 83.9611C48.9131 98.6838 45.529 113.269 42.5458 127.901C38.2713 127.674 33.9746 127.4 29.6775 127.104C25.9815 107.048 21.6404 87.1286 18.1893 67.0274C21.9964 66.8452 25.8257 66.6857 29.6327 66.5489C31.9258 81.0667 34.5308 95.5159 36.5349 110.056C39.6739 95.1511 42.8796 80.2461 45.9968 65.3412C50.2269 65.0904 54.457 64.9082 58.6871 64.6801C61.6481 80.0639 64.6758 95.4246 67.8818 110.74C70.3977 94.9234 73.1804 79.152 75.8746 63.3583C80.3271 63.1988 84.78 62.948 89.2102 62.6745C84.1789 84.7586 79.7705 107.025 74.2714 128.973ZM185.368 167.011H115.727V152.697H173.612V143.581H115.727V132.186H173.612V123.07H115.727V111.674H173.612V102.558H115.727V91.1626H173.612V82.0468H115.727V70.6511H173.612V61.5349H115.727V50.1396H173.612V41.0234H115.727V28.9889H185.368V167.011V167.011Z"/>
</mask>
<path d="M187.148 18.2328H115.727V0H102.413L0 18.2782V177.767L101.812 196H115.727V177.835H182.562C186.347 177.653 190.554 177.949 193.805 175.579C196.41 171.5 195.742 166.395 195.964 161.791V27.0754C196.432 21.8791 192.224 17.7084 187.148 18.2328V18.2328ZM74.2714 128.973C70.5535 130.955 64.9874 128.881 60.5793 129.2C57.6183 114.113 54.1672 99.1168 51.5181 83.9611C48.9131 98.6838 45.529 113.269 42.5458 127.901C38.2713 127.674 33.9746 127.4 29.6775 127.104C25.9815 107.048 21.6404 87.1286 18.1893 67.0274C21.9964 66.8452 25.8257 66.6857 29.6327 66.5489C31.9258 81.0667 34.5308 95.5159 36.5349 110.056C39.6739 95.1511 42.8796 80.2461 45.9968 65.3412C50.2269 65.0904 54.457 64.9082 58.6871 64.6801C61.6481 80.0639 64.6758 95.4246 67.8818 110.74C70.3977 94.9234 73.1804 79.152 75.8746 63.3583C80.3271 63.1988 84.78 62.948 89.2102 62.6745C84.1789 84.7586 79.7705 107.025 74.2714 128.973ZM185.368 167.011H115.727V152.697H173.612V143.581H115.727V132.186H173.612V123.07H115.727V111.674H173.612V102.558H115.727V91.1626H173.612V82.0468H115.727V70.6511H173.612V61.5349H115.727V50.1396H173.612V41.0234H115.727V28.9889H185.368V167.011V167.011Z" fill="url(#paint0_linear_1879_9836)" stroke="white" stroke-width="2" mask="url(#path-1-inside-1_1879_9836)"/>
</mask>
<g mask="url(#mask0_1879_9836)">
<rect width="196" height="196" fill="#DA2063"/>
</g>
<defs>
<linearGradient id="paint0_linear_1879_9836" x1="98" y1="0.0375012" x2="98" y2="196" gradientUnits="userSpaceOnUse">
<stop offset="0.144424" stop-color="white" stop-opacity="0"/>
<stop offset="0.144524" stop-color="white"/>
<stop offset="1" stop-color="white"/>
</linearGradient>
</defs>
</svg>
